G04*
G04 #@! TF.GenerationSoftware,Altium Limited,Altium Designer,23.1.1 (15)*
G04*
G04 Layer_Color=8388736*
%FSLAX44Y44*%
%MOMM*%
G71*
G04*
G04 #@! TF.SameCoordinates,7295AF94-9057-4BB6-BE4D-2D92AE26B948*
G04*
G04*
G04 #@! TF.FilePolarity,Negative*
G04*
G01*
G75*
G04:AMPARAMS|DCode=21|XSize=1.7071mm|YSize=0.6158mm|CornerRadius=0.3079mm|HoleSize=0mm|Usage=FLASHONLY|Rotation=90.000|XOffset=0mm|YOffset=0mm|HoleType=Round|Shape=RoundedRectangle|*
%AMROUNDEDRECTD21*
21,1,1.7071,0.0000,0,0,90.0*
21,1,1.0913,0.6158,0,0,90.0*
1,1,0.6158,0.0000,0.5457*
1,1,0.6158,0.0000,-0.5457*
1,1,0.6158,0.0000,-0.5457*
1,1,0.6158,0.0000,0.5457*
%
%ADD21ROUNDEDRECTD21*%
%ADD22R,0.6158X1.7071*%
%ADD23R,0.3000X1.0000*%
%ADD24R,2.0000X1.3000*%
%ADD26R,1.0500X0.6500*%
G04:AMPARAMS|DCode=30|XSize=0.7mm|YSize=0.65mm|CornerRadius=0.1375mm|HoleSize=0mm|Usage=FLASHONLY|Rotation=90.000|XOffset=0mm|YOffset=0mm|HoleType=Round|Shape=RoundedRectangle|*
%AMROUNDEDRECTD30*
21,1,0.7000,0.3750,0,0,90.0*
21,1,0.4250,0.6500,0,0,90.0*
1,1,0.2750,0.1875,0.2125*
1,1,0.2750,0.1875,-0.2125*
1,1,0.2750,-0.1875,-0.2125*
1,1,0.2750,-0.1875,0.2125*
%
%ADD30ROUNDEDRECTD30*%
%ADD31R,0.7500X0.7000*%
%ADD32R,0.9500X0.9500*%
%ADD33R,0.7100X0.6700*%
%ADD34R,1.6000X1.0000*%
%ADD35R,0.9000X0.9000*%
%ADD36R,0.7000X1.2400*%
%ADD37R,0.4000X1.2400*%
%ADD38R,0.7300X0.6900*%
%ADD39R,0.8000X1.2000*%
G04:AMPARAMS|DCode=40|XSize=0.7mm|YSize=0.65mm|CornerRadius=0.1375mm|HoleSize=0mm|Usage=FLASHONLY|Rotation=0.000|XOffset=0mm|YOffset=0mm|HoleType=Round|Shape=RoundedRectangle|*
%AMROUNDEDRECTD40*
21,1,0.7000,0.3750,0,0,0.0*
21,1,0.4250,0.6500,0,0,0.0*
1,1,0.2750,0.2125,-0.1875*
1,1,0.2750,-0.2125,-0.1875*
1,1,0.2750,-0.2125,0.1875*
1,1,0.2750,0.2125,0.1875*
%
%ADD40ROUNDEDRECTD40*%
%ADD41R,0.6900X0.7300*%
%ADD42C,0.7500*%
%ADD43C,5.1500*%
%ADD44C,1.6500*%
%ADD45R,1.6500X1.6500*%
G36*
X982010Y424990D02*
X982270Y424970D01*
X982530Y424940D01*
X982790Y424890D01*
X983040Y424830D01*
X983300Y424760D01*
X983540Y424670D01*
X983780Y424570D01*
X984020Y424460D01*
X984250Y424330D01*
X984470Y424190D01*
X984690Y424050D01*
X984900Y423890D01*
X985100Y423720D01*
X985290Y423540D01*
X985470Y423350D01*
X985640Y423150D01*
X985800Y422940D01*
X985940Y422720D01*
X986080Y422500D01*
X986210Y422270D01*
X986320Y422030D01*
X986420Y421790D01*
X986510Y421550D01*
X986580Y421290D01*
X986640Y421040D01*
X986690Y420780D01*
X986720Y420520D01*
X986740Y420260D01*
X986750Y420000D01*
Y412000D01*
X986740Y411740D01*
X986720Y411480D01*
X986690Y411220D01*
X986640Y410960D01*
X986580Y410710D01*
X986510Y410450D01*
X986420Y410210D01*
X986320Y409970D01*
X986210Y409730D01*
X986080Y409500D01*
X985940Y409280D01*
X985800Y409060D01*
X985640Y408850D01*
X985470Y408650D01*
X985290Y408460D01*
X985100Y408280D01*
X984900Y408110D01*
X984690Y407950D01*
X984470Y407810D01*
X984250Y407670D01*
X984020Y407540D01*
X983780Y407430D01*
X983540Y407330D01*
X983300Y407240D01*
X983040Y407170D01*
X982790Y407110D01*
X982530Y407060D01*
X982270Y407030D01*
X982010Y407010D01*
X981750Y407000D01*
X981490Y407010D01*
X981230Y407030D01*
X980970Y407060D01*
X980710Y407110D01*
X980460Y407170D01*
X980200Y407240D01*
X979960Y407330D01*
X979720Y407430D01*
X979480Y407540D01*
X979250Y407670D01*
X979030Y407810D01*
X978810Y407950D01*
X978600Y408110D01*
X978400Y408280D01*
X978210Y408460D01*
X978030Y408650D01*
X977860Y408850D01*
X977700Y409060D01*
X977560Y409280D01*
X977420Y409500D01*
X977290Y409730D01*
X977180Y409970D01*
X977080Y410210D01*
X976990Y410450D01*
X976920Y410710D01*
X976860Y410960D01*
X976810Y411220D01*
X976780Y411480D01*
X976760Y411740D01*
X976750Y412000D01*
Y420000D01*
X976760Y420260D01*
X976780Y420520D01*
X976810Y420780D01*
X976860Y421040D01*
X976920Y421290D01*
X976990Y421550D01*
X977080Y421790D01*
X977180Y422030D01*
X977290Y422270D01*
X977420Y422500D01*
X977560Y422720D01*
X977700Y422940D01*
X977860Y423150D01*
X978030Y423350D01*
X978210Y423540D01*
X978400Y423720D01*
X978600Y423890D01*
X978810Y424050D01*
X979030Y424190D01*
X979250Y424330D01*
X979480Y424460D01*
X979720Y424570D01*
X979960Y424670D01*
X980200Y424760D01*
X980460Y424830D01*
X980710Y424890D01*
X980970Y424940D01*
X981230Y424970D01*
X981490Y424990D01*
X981750Y425000D01*
X982010Y424990D01*
D02*
G37*
G36*
Y468190D02*
X982270Y468170D01*
X982530Y468140D01*
X982790Y468090D01*
X983040Y468030D01*
X983300Y467960D01*
X983540Y467870D01*
X983780Y467770D01*
X984020Y467660D01*
X984250Y467530D01*
X984470Y467390D01*
X984690Y467250D01*
X984900Y467090D01*
X985100Y466920D01*
X985290Y466740D01*
X985470Y466550D01*
X985640Y466350D01*
X985800Y466140D01*
X985940Y465920D01*
X986080Y465700D01*
X986210Y465470D01*
X986320Y465230D01*
X986420Y464990D01*
X986510Y464750D01*
X986580Y464490D01*
X986640Y464240D01*
X986690Y463980D01*
X986720Y463720D01*
X986740Y463460D01*
X986750Y463200D01*
Y452200D01*
X986740Y451940D01*
X986720Y451680D01*
X986690Y451420D01*
X986640Y451160D01*
X986580Y450910D01*
X986510Y450650D01*
X986420Y450410D01*
X986320Y450170D01*
X986210Y449930D01*
X986080Y449700D01*
X985940Y449480D01*
X985800Y449260D01*
X985640Y449050D01*
X985470Y448850D01*
X985290Y448660D01*
X985100Y448480D01*
X984900Y448310D01*
X984690Y448150D01*
X984470Y448010D01*
X984250Y447870D01*
X984020Y447740D01*
X983780Y447630D01*
X983540Y447530D01*
X983300Y447440D01*
X983040Y447370D01*
X982790Y447310D01*
X982530Y447260D01*
X982270Y447230D01*
X982010Y447210D01*
X981750Y447200D01*
X981490Y447210D01*
X981230Y447230D01*
X980970Y447260D01*
X980710Y447310D01*
X980460Y447370D01*
X980200Y447440D01*
X979960Y447530D01*
X979720Y447630D01*
X979480Y447740D01*
X979250Y447870D01*
X979030Y448010D01*
X978810Y448150D01*
X978600Y448310D01*
X978400Y448480D01*
X978210Y448660D01*
X978030Y448850D01*
X977860Y449050D01*
X977700Y449260D01*
X977560Y449480D01*
X977420Y449700D01*
X977290Y449930D01*
X977180Y450170D01*
X977080Y450410D01*
X976990Y450650D01*
X976920Y450910D01*
X976860Y451160D01*
X976810Y451420D01*
X976780Y451680D01*
X976760Y451940D01*
X976750Y452200D01*
Y463200D01*
X976760Y463460D01*
X976780Y463720D01*
X976810Y463980D01*
X976860Y464240D01*
X976920Y464490D01*
X976990Y464750D01*
X977080Y464990D01*
X977180Y465230D01*
X977290Y465470D01*
X977420Y465700D01*
X977560Y465920D01*
X977700Y466140D01*
X977860Y466350D01*
X978030Y466550D01*
X978210Y466740D01*
X978400Y466920D01*
X978600Y467090D01*
X978810Y467250D01*
X979030Y467390D01*
X979250Y467530D01*
X979480Y467660D01*
X979720Y467770D01*
X979960Y467870D01*
X980200Y467960D01*
X980460Y468030D01*
X980710Y468090D01*
X980970Y468140D01*
X981230Y468170D01*
X981490Y468190D01*
X981750Y468200D01*
X982010Y468190D01*
D02*
G37*
G36*
X1068510Y424990D02*
X1068770Y424970D01*
X1069030Y424940D01*
X1069290Y424890D01*
X1069540Y424830D01*
X1069800Y424760D01*
X1070040Y424670D01*
X1070280Y424570D01*
X1070520Y424460D01*
X1070750Y424330D01*
X1070970Y424190D01*
X1071190Y424050D01*
X1071400Y423890D01*
X1071600Y423720D01*
X1071790Y423540D01*
X1071970Y423350D01*
X1072140Y423150D01*
X1072300Y422940D01*
X1072440Y422720D01*
X1072580Y422500D01*
X1072710Y422270D01*
X1072820Y422030D01*
X1072920Y421790D01*
X1073010Y421550D01*
X1073080Y421290D01*
X1073140Y421040D01*
X1073190Y420780D01*
X1073220Y420520D01*
X1073240Y420260D01*
X1073250Y420000D01*
Y412000D01*
X1073240Y411740D01*
X1073220Y411480D01*
X1073190Y411220D01*
X1073140Y410960D01*
X1073080Y410710D01*
X1073010Y410450D01*
X1072920Y410210D01*
X1072820Y409970D01*
X1072710Y409730D01*
X1072580Y409500D01*
X1072440Y409280D01*
X1072300Y409060D01*
X1072140Y408850D01*
X1071970Y408650D01*
X1071790Y408460D01*
X1071600Y408280D01*
X1071400Y408110D01*
X1071190Y407950D01*
X1070970Y407810D01*
X1070750Y407670D01*
X1070520Y407540D01*
X1070280Y407430D01*
X1070040Y407330D01*
X1069800Y407240D01*
X1069540Y407170D01*
X1069290Y407110D01*
X1069030Y407060D01*
X1068770Y407030D01*
X1068510Y407010D01*
X1068250Y407000D01*
X1067990Y407010D01*
X1067730Y407030D01*
X1067470Y407060D01*
X1067210Y407110D01*
X1066960Y407170D01*
X1066700Y407240D01*
X1066460Y407330D01*
X1066220Y407430D01*
X1065980Y407540D01*
X1065750Y407670D01*
X1065530Y407810D01*
X1065310Y407950D01*
X1065100Y408110D01*
X1064900Y408280D01*
X1064710Y408460D01*
X1064530Y408650D01*
X1064360Y408850D01*
X1064200Y409060D01*
X1064060Y409280D01*
X1063920Y409500D01*
X1063790Y409730D01*
X1063680Y409970D01*
X1063580Y410210D01*
X1063490Y410450D01*
X1063420Y410710D01*
X1063360Y410960D01*
X1063310Y411220D01*
X1063280Y411480D01*
X1063260Y411740D01*
X1063250Y412000D01*
Y420000D01*
X1063260Y420260D01*
X1063280Y420520D01*
X1063310Y420780D01*
X1063360Y421040D01*
X1063420Y421290D01*
X1063490Y421550D01*
X1063580Y421790D01*
X1063680Y422030D01*
X1063790Y422270D01*
X1063920Y422500D01*
X1064060Y422720D01*
X1064200Y422940D01*
X1064360Y423150D01*
X1064530Y423350D01*
X1064710Y423540D01*
X1064900Y423720D01*
X1065100Y423890D01*
X1065310Y424050D01*
X1065530Y424190D01*
X1065750Y424330D01*
X1065980Y424460D01*
X1066220Y424570D01*
X1066460Y424670D01*
X1066700Y424760D01*
X1066960Y424830D01*
X1067210Y424890D01*
X1067470Y424940D01*
X1067730Y424970D01*
X1067990Y424990D01*
X1068250Y425000D01*
X1068510Y424990D01*
D02*
G37*
G36*
Y468190D02*
X1068770Y468170D01*
X1069030Y468140D01*
X1069290Y468090D01*
X1069540Y468030D01*
X1069800Y467960D01*
X1070040Y467870D01*
X1070280Y467770D01*
X1070520Y467660D01*
X1070750Y467530D01*
X1070970Y467390D01*
X1071190Y467250D01*
X1071400Y467090D01*
X1071600Y466920D01*
X1071790Y466740D01*
X1071970Y466550D01*
X1072140Y466350D01*
X1072300Y466140D01*
X1072440Y465920D01*
X1072580Y465700D01*
X1072710Y465470D01*
X1072820Y465230D01*
X1072920Y464990D01*
X1073010Y464750D01*
X1073080Y464490D01*
X1073140Y464240D01*
X1073190Y463980D01*
X1073220Y463720D01*
X1073240Y463460D01*
X1073250Y463200D01*
Y452200D01*
X1073240Y451940D01*
X1073220Y451680D01*
X1073190Y451420D01*
X1073140Y451160D01*
X1073080Y450910D01*
X1073010Y450650D01*
X1072920Y450410D01*
X1072820Y450170D01*
X1072710Y449930D01*
X1072580Y449700D01*
X1072440Y449480D01*
X1072300Y449260D01*
X1072140Y449050D01*
X1071970Y448850D01*
X1071790Y448660D01*
X1071600Y448480D01*
X1071400Y448310D01*
X1071190Y448150D01*
X1070970Y448010D01*
X1070750Y447870D01*
X1070520Y447740D01*
X1070280Y447630D01*
X1070040Y447530D01*
X1069800Y447440D01*
X1069540Y447370D01*
X1069290Y447310D01*
X1069030Y447260D01*
X1068770Y447230D01*
X1068510Y447210D01*
X1068250Y447200D01*
X1067950Y447210D01*
X1067680Y447240D01*
X1067420Y447280D01*
X1067160Y447330D01*
X1066910Y447400D01*
X1066660Y447470D01*
X1066410Y447570D01*
X1066170Y447670D01*
X1065930Y447790D01*
X1065700Y447920D01*
X1065480Y448060D01*
X1065260Y448220D01*
X1065050Y448380D01*
X1064860Y448560D01*
X1064670Y448740D01*
X1064490Y448940D01*
X1064320Y449140D01*
X1064160Y449350D01*
X1064020Y449570D01*
X1063880Y449800D01*
X1063760Y450040D01*
X1063650Y450280D01*
X1063550Y450520D01*
X1063470Y450770D01*
X1063400Y451030D01*
X1063340Y451290D01*
X1063300Y451550D01*
X1063270Y451810D01*
X1063250Y452070D01*
Y452300D01*
Y463300D01*
X1063260Y463600D01*
X1063290Y463850D01*
X1063320Y464110D01*
X1063380Y464360D01*
X1063440Y464610D01*
X1063520Y464860D01*
X1063610Y465100D01*
X1063710Y465340D01*
X1063830Y465570D01*
X1063960Y465800D01*
X1064100Y466020D01*
X1064250Y466230D01*
X1064410Y466430D01*
X1064580Y466630D01*
X1064760Y466810D01*
X1064950Y466990D01*
X1065150Y467150D01*
X1065360Y467310D01*
X1065580Y467450D01*
X1065800Y467580D01*
X1066030Y467700D01*
X1066270Y467810D01*
X1066510Y467900D01*
X1066750Y467980D01*
X1067000Y468050D01*
X1067260Y468110D01*
X1067510Y468150D01*
X1067770Y468180D01*
X1068030Y468200D01*
X1068250D01*
X1068510Y468190D01*
D02*
G37*
D21*
X1041500Y554069D02*
D03*
X1060500D02*
D03*
Y530058D02*
D03*
X1051000D02*
D03*
D22*
X1041500D02*
D03*
D23*
X1052500Y660250D02*
D03*
X1062500D02*
D03*
X1072500D02*
D03*
X1077500D02*
D03*
X1082500D02*
D03*
X1107500D02*
D03*
X1112500D02*
D03*
X1117500D02*
D03*
X1122500D02*
D03*
X927500D02*
D03*
X932500D02*
D03*
X937500D02*
D03*
X942500D02*
D03*
X947500D02*
D03*
X952500D02*
D03*
X957500D02*
D03*
X962500D02*
D03*
X967500D02*
D03*
X972500D02*
D03*
X977500D02*
D03*
X982500D02*
D03*
X987500D02*
D03*
X992500D02*
D03*
X997500D02*
D03*
X1002500D02*
D03*
X1007500D02*
D03*
X1012500D02*
D03*
X1017500D02*
D03*
X1022500D02*
D03*
X1027500D02*
D03*
X1032500D02*
D03*
X1037500D02*
D03*
X1042500D02*
D03*
X1047500D02*
D03*
X1092500D02*
D03*
X1097500D02*
D03*
X1102500D02*
D03*
X1057500D02*
D03*
X1067500D02*
D03*
X1087500D02*
D03*
D24*
X904500Y687250D02*
D03*
X1145500D02*
D03*
D26*
X945750Y424000D02*
D03*
X904250D02*
D03*
X945750Y445500D02*
D03*
X904250D02*
D03*
X1145750Y424000D02*
D03*
X1104250D02*
D03*
X1145750Y445500D02*
D03*
X1104250D02*
D03*
D30*
X1041500Y577000D02*
D03*
X1050500D02*
D03*
X1058500Y504000D02*
D03*
X1049500D02*
D03*
X895500Y997000D02*
D03*
X904500D02*
D03*
D31*
X1034250Y833000D02*
D03*
X1025750D02*
D03*
X1003750Y482000D02*
D03*
X1012250D02*
D03*
X1051250D02*
D03*
X1042750D02*
D03*
D32*
X1025000Y797000D02*
D03*
X1015500Y821000D02*
D03*
X1034500D02*
D03*
D33*
X970900Y642000D02*
D03*
X963100D02*
D03*
X912900Y1017000D02*
D03*
X905100D02*
D03*
D34*
X937500Y1050000D02*
D03*
X1112500Y999450D02*
D03*
Y1012150D02*
D03*
Y1024850D02*
D03*
Y1037550D02*
D03*
Y935950D02*
D03*
Y948650D02*
D03*
Y961350D02*
D03*
Y974050D02*
D03*
Y986750D02*
D03*
Y923250D02*
D03*
Y910550D02*
D03*
Y897850D02*
D03*
Y885150D02*
D03*
X937500Y999200D02*
D03*
Y1011900D02*
D03*
Y1024600D02*
D03*
Y1037300D02*
D03*
Y935700D02*
D03*
Y948400D02*
D03*
Y961100D02*
D03*
Y973800D02*
D03*
Y986500D02*
D03*
Y923000D02*
D03*
Y910300D02*
D03*
Y897600D02*
D03*
Y884900D02*
D03*
X1112500Y1050250D02*
D03*
D35*
X1022450Y980550D02*
D03*
Y993050D02*
D03*
Y1005550D02*
D03*
X1009950D02*
D03*
Y993050D02*
D03*
Y980550D02*
D03*
X997450D02*
D03*
Y993050D02*
D03*
Y1005550D02*
D03*
D36*
X1057000Y463500D02*
D03*
X1049000D02*
D03*
X1001000D02*
D03*
X993000D02*
D03*
D37*
X1042500D02*
D03*
X1037500D02*
D03*
X1032500D02*
D03*
X1027500D02*
D03*
X1007500D02*
D03*
X1012500D02*
D03*
X1017500D02*
D03*
X1022500D02*
D03*
D38*
X912900Y1030000D02*
D03*
X905100D02*
D03*
X905100Y1008000D02*
D03*
X912900D02*
D03*
D39*
X914500Y1046000D02*
D03*
X897500D02*
D03*
D40*
X918000Y916500D02*
D03*
Y925500D02*
D03*
D41*
X1134000Y877100D02*
D03*
Y884900D02*
D03*
D42*
X1053900Y452800D02*
D03*
X996100D02*
D03*
D43*
X1213000Y422000D02*
D03*
X837000D02*
D03*
X1213000Y1098000D02*
D03*
X837000D02*
D03*
D44*
X1227250Y564250D02*
D03*
Y615050D02*
D03*
Y640450D02*
D03*
Y691250D02*
D03*
Y716650D02*
D03*
Y742050D02*
D03*
Y767450D02*
D03*
Y792850D02*
D03*
Y818250D02*
D03*
Y843650D02*
D03*
Y869050D02*
D03*
Y894450D02*
D03*
Y919850D02*
D03*
X822750Y564250D02*
D03*
Y742050D02*
D03*
Y589650D02*
D03*
Y615050D02*
D03*
Y640450D02*
D03*
Y665850D02*
D03*
Y691250D02*
D03*
Y716650D02*
D03*
Y767450D02*
D03*
Y792850D02*
D03*
Y818250D02*
D03*
Y843650D02*
D03*
Y869050D02*
D03*
Y894450D02*
D03*
Y919850D02*
D03*
X1227250Y665850D02*
D03*
Y589650D02*
D03*
D45*
X822750Y945250D02*
D03*
X1227250D02*
D03*
M02*
