G04*
G04 #@! TF.GenerationSoftware,Altium Limited,Altium Designer,23.1.1 (15)*
G04*
G04 Layer_Color=32896*
%FSLAX44Y44*%
%MOMM*%
G71*
G04*
G04 #@! TF.SameCoordinates,7295AF94-9057-4BB6-BE4D-2D92AE26B948*
G04*
G04*
G04 #@! TF.FilePolarity,Positive*
G04*
G01*
G75*
%ADD14C,0.1250*%
G36*
X973435Y649940D02*
X973700Y649808D01*
X974164Y648946D01*
X974296Y648416D01*
X974694Y647489D01*
X974826Y645369D01*
X974959Y644441D01*
X975091Y644044D01*
X975224Y639936D01*
X975091Y638214D01*
X975224Y636491D01*
X975356Y636094D01*
X975290Y634570D01*
X975157Y632318D01*
X975025Y622645D01*
X975091Y620194D01*
X975224Y619796D01*
X975091Y615689D01*
X975224Y612774D01*
X975356Y612376D01*
X975224Y611051D01*
X974959Y610389D01*
X974760Y610190D01*
X974362Y610057D01*
X973965Y610190D01*
X973700Y610322D01*
X973369Y610786D01*
X973236Y611714D01*
X973369Y613039D01*
X973236Y613436D01*
X973369Y614761D01*
X973501Y615159D01*
X973369Y618339D01*
X973236Y618869D01*
X973369Y620591D01*
X973501Y621121D01*
X973634Y621519D01*
X973501Y623241D01*
X973369Y623639D01*
X973501Y626951D01*
X973369Y627879D01*
X973236Y628276D01*
X973303Y628740D01*
X973435Y629403D01*
X973369Y632516D01*
X973501Y636624D01*
X973369Y637021D01*
X973435Y637882D01*
X973634Y639141D01*
X973501Y639539D01*
X973369Y646031D01*
X973501Y646959D01*
X973369Y647489D01*
X973037Y647820D01*
X972441Y647621D01*
X972110Y647158D01*
X972044Y647091D01*
X971580Y645700D01*
X971381Y644839D01*
X971050Y643978D01*
X970785Y643315D01*
X970586Y642056D01*
X970387Y641328D01*
X970123Y640665D01*
X969924Y639804D01*
X969791Y638479D01*
X969460Y637352D01*
X969261Y636624D01*
X969129Y635299D01*
X968864Y634636D01*
X968731Y633709D01*
X968599Y633179D01*
X968334Y631589D01*
X968069Y630926D01*
X967804Y629071D01*
X967671Y628541D01*
X967539Y628144D01*
X967406Y625626D01*
X967274Y625096D01*
X967075Y624500D01*
X966280Y624367D01*
X965949Y624699D01*
X965816Y626289D01*
X964889Y628276D01*
X964690Y628475D01*
X964425Y628607D01*
X963895Y628475D01*
X963564Y628144D01*
X963431Y626024D01*
X963299Y625494D01*
X963100Y624765D01*
X962968Y624103D01*
X962702Y622513D01*
X962570Y621982D01*
X962040Y620658D01*
X961841Y619531D01*
X961576Y618471D01*
X961179Y617544D01*
X961046Y616351D01*
X960914Y615424D01*
X960649Y614364D01*
X960251Y613436D01*
X960781Y612244D01*
X960715Y611118D01*
X960052Y610985D01*
X959589Y611449D01*
X959456Y613171D01*
X959258Y613900D01*
X959125Y614562D01*
X959191Y615689D01*
X959324Y616086D01*
X959456Y618471D01*
X959589Y619001D01*
X960119Y619796D01*
X960251Y620326D01*
X960119Y620856D01*
X959854Y621121D01*
X959589Y621784D01*
X959854Y622446D01*
X959986Y622711D01*
X960384Y623109D01*
X960516Y624434D01*
X960715Y624632D01*
X961113Y624765D01*
X961311Y624964D01*
X961444Y625229D01*
X961046Y626156D01*
X960914Y626686D01*
X961179Y627349D01*
X961311Y627614D01*
X961510Y627680D01*
X961974Y628276D01*
X962172Y628740D01*
X962371Y629469D01*
X962835Y629800D01*
X963100Y629933D01*
X963299Y630131D01*
X963431Y630529D01*
X963299Y630926D01*
X963166Y631986D01*
X963365Y632185D01*
X964027Y632450D01*
X964226Y633841D01*
X964690Y634305D01*
X964955Y634437D01*
X965286Y634901D01*
X965419Y635431D01*
X965618Y636027D01*
X966677Y636292D01*
X966876Y636491D01*
X967009Y637286D01*
X966677Y637617D01*
X966413Y637750D01*
X966214Y637949D01*
X966081Y638346D01*
X966346Y639274D01*
X966943Y639870D01*
X967340Y641328D01*
X968135Y641460D01*
X968334Y641659D01*
X968466Y642454D01*
X968002Y642653D01*
X967804Y642851D01*
X967671Y643514D01*
X967804Y644044D01*
X968334Y644574D01*
X968731Y645236D01*
X969062Y646097D01*
X969791Y646561D01*
X970123Y647025D01*
X970056Y647356D01*
X969659Y647754D01*
X969526Y648151D01*
X969659Y648681D01*
X970056Y649079D01*
X970918Y649410D01*
X970984Y649609D01*
X971448Y650072D01*
X972773Y650205D01*
X973435Y649940D01*
D02*
G37*
G36*
X961113Y609528D02*
X961510Y608865D01*
X961576Y608799D01*
X961643Y608467D01*
X961908Y607407D01*
X962106Y605221D01*
X962305Y604492D01*
X962438Y603830D01*
X962636Y600849D01*
X962769Y600451D01*
X962901Y597271D01*
X962636Y595681D01*
X962106Y595151D01*
X961775Y594688D01*
X961444Y593826D01*
X961245Y593628D01*
X960450Y593495D01*
X960251Y593694D01*
X960119Y593959D01*
X959589Y594489D01*
X959456Y595284D01*
X959788Y595615D01*
X960052Y595747D01*
X960450Y596145D01*
X960583Y596675D01*
X960516Y597536D01*
X960251Y597801D01*
X960119Y598331D01*
X960251Y598861D01*
X960516Y599126D01*
X960649Y600186D01*
X960384Y601776D01*
X960516Y602174D01*
X960649Y603366D01*
X960516Y603896D01*
X960251Y604559D01*
X960119Y605354D01*
X960384Y606016D01*
X960516Y607209D01*
X959986Y608004D01*
X959854Y608666D01*
X959986Y609196D01*
X960583Y609660D01*
X961113Y609528D01*
D02*
G37*
G36*
X959854Y592369D02*
X959986Y592104D01*
X959854Y591176D01*
X959589Y590116D01*
X959324Y589454D01*
X958661Y588394D01*
X958529Y587466D01*
X958131Y586141D01*
X957999Y585611D01*
X957005Y583690D01*
X956674Y582829D01*
X956011Y581371D01*
X955680Y580908D01*
X955481Y580179D01*
X955216Y579119D01*
X954951Y578854D01*
X954819Y578589D01*
X953361Y577131D01*
X953229Y576866D01*
X952566Y575939D01*
X952434Y575674D01*
X952036Y575276D01*
X951904Y575011D01*
X951374Y574481D01*
X951241Y574216D01*
X950976Y573951D01*
X950844Y573686D01*
X949453Y572295D01*
X949187Y572163D01*
X948989Y571964D01*
X948326Y570771D01*
X947862Y570308D01*
X946670Y569645D01*
X945875Y568850D01*
X945478Y568717D01*
X945080Y569115D01*
X944484Y569049D01*
X944351Y567989D01*
X943357Y567923D01*
X943225Y568187D01*
X943291Y568519D01*
X943556Y569181D01*
X944351Y570639D01*
X944815Y570970D01*
X945014Y570771D01*
X945146Y570374D01*
X945345Y570175D01*
X946008Y570042D01*
X946339Y570374D01*
X946273Y571500D01*
X945809Y571699D01*
X945676Y572096D01*
X946140Y572163D01*
X946537Y571765D01*
X947200Y571898D01*
X947531Y572229D01*
X947796Y572891D01*
X947929Y573421D01*
X948591Y574481D01*
X948724Y576204D01*
X948856Y576601D01*
X948989Y576866D01*
X949519Y577661D01*
X949651Y577926D01*
X950247Y578390D01*
X950645Y578257D01*
X951705Y578125D01*
X952235Y578257D01*
X952434Y578456D01*
X952765Y578920D01*
X953428Y579980D01*
X953759Y581371D01*
X954289Y581901D01*
X954421Y583889D01*
X954819Y584154D01*
X955547Y584352D01*
X955879Y584816D01*
X955746Y586539D01*
X956409Y587466D01*
Y587599D01*
Y587731D01*
X956806Y588659D01*
X957469Y589851D01*
X957734Y590514D01*
X959655Y592435D01*
X959854Y592369D01*
D02*
G37*
G36*
X942496Y567061D02*
X942629Y566531D01*
X942496Y566134D01*
X942364Y565869D01*
X941701Y565471D01*
X941569Y564279D01*
X941436Y563749D01*
X940973Y563550D01*
X940641Y564279D01*
X940906Y564941D01*
X941304Y565339D01*
X941436Y566001D01*
X941569Y566531D01*
X941768Y566730D01*
X942032Y566862D01*
X942231Y567061D01*
X942298Y567127D01*
X942496Y567061D01*
D02*
G37*
G36*
X940376Y562424D02*
X940509Y561894D01*
X940244Y561231D01*
X939979Y560966D01*
X939780Y560503D01*
X939449Y559641D01*
X939118Y559310D01*
X938389Y558846D01*
X937859Y558714D01*
X937726Y558051D01*
X937527Y557455D01*
X936998Y557323D01*
X936468Y557455D01*
X936269Y557654D01*
X935540Y558250D01*
X934944Y558184D01*
X934016Y556461D01*
X933354Y555269D01*
X933221Y555004D01*
X932890Y554673D01*
X932824Y554606D01*
X931963Y553745D01*
X931697Y553613D01*
X930902Y552817D01*
X930638Y552685D01*
X929975Y552023D01*
X929710Y551890D01*
X929313Y551493D01*
X929047Y551360D01*
X928120Y550433D01*
X927193Y549902D01*
X926927Y549770D01*
X926066Y548909D01*
X924808Y548047D01*
X924542Y547915D01*
X924013Y547385D01*
X923085Y546855D01*
X921760Y545928D01*
X921495Y545795D01*
X921230Y545530D01*
X920965Y545397D01*
X920700Y545132D01*
X919508Y544470D01*
X918845Y544205D01*
X917984Y543874D01*
X916725Y543410D01*
X916195Y543278D01*
X915930Y543013D01*
X915665Y542880D01*
X915267Y542482D01*
X914075Y542350D01*
X914009Y542814D01*
X914208Y543410D01*
X914870Y543807D01*
X915798Y543940D01*
X915996Y544139D01*
X916328Y544603D01*
X916592Y544735D01*
X916791Y544934D01*
X917454Y545066D01*
X917984Y545199D01*
X918712Y545795D01*
X920038Y546325D01*
X920435Y546722D01*
X921363Y547253D01*
X921628Y547518D01*
X921892Y547650D01*
X921959Y547849D01*
X922290Y548180D01*
X923217Y548843D01*
X923483Y548975D01*
X924277Y550168D01*
X926066Y551161D01*
X926199Y551426D01*
X926397Y551625D01*
X927325Y552155D01*
X927656Y552486D01*
X927988Y552950D01*
X928650Y553348D01*
X929313Y553613D01*
X930041Y554341D01*
X930770Y554938D01*
X931035Y555070D01*
X931432Y555467D01*
X931697Y556130D01*
X932360Y556527D01*
X932559Y556726D01*
X932956Y557389D01*
X933221Y558051D01*
X933486Y558316D01*
X934149Y558581D01*
X934944Y558714D01*
X937660Y558647D01*
X937859Y560039D01*
X938455Y560635D01*
X938919Y560966D01*
X939581Y562159D01*
X940178Y562490D01*
X940376Y562424D01*
D02*
G37*
G36*
X974893Y608732D02*
X975091Y608401D01*
X975025Y604360D01*
X974893Y602108D01*
X974694Y599259D01*
X974561Y597536D01*
X974429Y597006D01*
X973899Y595284D01*
X973634Y594621D01*
X973037Y594290D01*
X972441Y593561D01*
X972309Y592634D01*
X971779Y591441D01*
X971646Y590514D01*
X971381Y589851D01*
X970851Y589321D01*
X970123Y588195D01*
X969460Y587798D01*
X968864Y587069D01*
X968731Y586539D01*
X968268Y586075D01*
X968002Y585942D01*
X967539Y585479D01*
X967406Y584816D01*
X967274Y583889D01*
X967075Y583690D01*
X966810Y583558D01*
X966611Y583226D01*
X966479Y582696D01*
X966214Y582034D01*
X965551Y581371D01*
X964756Y579914D01*
X964624Y579649D01*
X964160Y579185D01*
X963895Y579053D01*
X963696Y578721D01*
X963564Y578456D01*
X963299Y577794D01*
X962968Y577463D01*
X962702Y577330D01*
X962438Y577065D01*
X961841Y576336D01*
X961709Y576071D01*
X960649Y575011D01*
X960516Y574746D01*
X959456Y573686D01*
X959324Y572891D01*
X959456Y572494D01*
X959589Y571699D01*
X959324Y571036D01*
X958926Y570639D01*
X958065Y570308D01*
X957402Y570042D01*
X957071Y569711D01*
X956541Y568386D01*
X956342Y568187D01*
X956077Y568055D01*
X955746Y567724D01*
X955084Y566531D01*
X954554Y566001D01*
X954222Y565537D01*
X953692Y564743D01*
X953428Y564610D01*
X952765Y563947D01*
X952169Y563219D01*
X952036Y562954D01*
X951572Y562490D01*
X951308Y562357D01*
X951109Y562159D01*
X950976Y561894D01*
X950314Y561231D01*
X950181Y560966D01*
X949916Y560701D01*
X949784Y560436D01*
X949519Y559774D01*
X949386Y559244D01*
X949121Y558581D01*
X948392Y558250D01*
X947730Y557985D01*
X947465Y557853D01*
X946471Y556859D01*
X945941Y555931D01*
X945212Y555335D01*
X944682Y555202D01*
X944020Y554938D01*
X943357Y554275D01*
X943159Y554341D01*
X943424Y555004D01*
X943821Y555666D01*
X944351Y556859D01*
X945146Y557654D01*
X945279Y557919D01*
X946736Y559376D01*
X946869Y559641D01*
X947134Y559906D01*
X947266Y560171D01*
X947531Y560436D01*
X947664Y560701D01*
X949121Y562159D01*
X949254Y562424D01*
X949651Y562821D01*
X949784Y563086D01*
X950049Y563351D01*
X950181Y563616D01*
X950446Y563881D01*
X950579Y564146D01*
X951639Y565206D01*
X951771Y565471D01*
X952434Y566399D01*
X952566Y566664D01*
X952831Y566929D01*
X952964Y567194D01*
X953361Y567591D01*
X953891Y568519D01*
X954024Y568784D01*
X954554Y569579D01*
X955481Y571301D01*
X955813Y571632D01*
X957667Y574548D01*
X958264Y575276D01*
X958396Y575541D01*
X959059Y576204D01*
X959191Y576469D01*
X960119Y577396D01*
X960251Y577661D01*
X960516Y577926D01*
X961311Y579384D01*
X961709Y579781D01*
X962504Y580444D01*
X963431Y582166D01*
X963696Y582829D01*
X964094Y583756D01*
X964293Y583955D01*
X964955Y585015D01*
X965154Y585744D01*
X966346Y587466D01*
X966479Y587731D01*
X966876Y588129D01*
X967009Y588394D01*
X967671Y589056D01*
X968201Y589984D01*
X968864Y591441D01*
X969791Y593164D01*
X970785Y595350D01*
X971315Y596145D01*
X971381Y596211D01*
X971779Y597404D01*
X972044Y598066D01*
X972507Y599590D01*
X972640Y600120D01*
X973303Y601842D01*
X973501Y602836D01*
X973369Y604161D01*
X973236Y604559D01*
X973369Y606679D01*
X973501Y607606D01*
X973766Y608269D01*
X973899Y608534D01*
X974362Y608865D01*
X974893Y608732D01*
D02*
G37*
G36*
X942894Y553944D02*
X942629Y553016D01*
X942364Y552751D01*
X941503Y552552D01*
X941039Y551691D01*
X940443Y551095D01*
X940178Y550962D01*
X939118Y550300D01*
X938852Y550168D01*
X938455Y549770D01*
X937793Y549372D01*
X937262Y548843D01*
X936070Y547915D01*
X935805Y547783D01*
X935474Y547451D01*
X935143Y546987D01*
X934877Y546855D01*
X934679Y546656D01*
X933818Y546325D01*
X933619Y546126D01*
X933486Y545861D01*
X933221Y545596D01*
X933089Y545331D01*
X932625Y545000D01*
X932360Y544868D01*
X931697Y544603D01*
X931300Y544205D01*
X931035Y544072D01*
X930770Y543807D01*
X930505Y543675D01*
X929843Y543410D01*
X929577Y543145D01*
X928650Y542615D01*
X927988Y542350D01*
X927458Y541820D01*
X926795Y541423D01*
X925867Y541157D01*
X925470Y540760D01*
X924542Y540098D01*
X923217Y539965D01*
X923151Y540164D01*
X923549Y540826D01*
X923681Y541091D01*
X924013Y541423D01*
X925205Y542085D01*
X926397Y543013D01*
X926927Y543145D01*
X927193Y543410D01*
X927458Y543543D01*
X927722Y543807D01*
X928186Y544139D01*
X929776Y545199D01*
X929843Y545265D01*
X930372Y545530D01*
X930770Y545928D01*
X931035Y546060D01*
X931697Y546722D01*
X932625Y547385D01*
X932890Y547518D01*
X933288Y547915D01*
X934215Y548577D01*
X934480Y548710D01*
X934745Y548975D01*
X935209Y549306D01*
X935938Y549902D01*
X938190Y551095D01*
X938455Y551227D01*
X938720Y551493D01*
X938985Y551625D01*
X939515Y552155D01*
X939780Y552287D01*
X940045Y552552D01*
X941370Y552685D01*
X941701Y553414D01*
X941900Y553613D01*
X942165Y553745D01*
X942430Y554010D01*
X942894Y553944D01*
D02*
G37*
G36*
X917255Y537315D02*
X917719Y536851D01*
X917586Y536454D01*
X917122Y535990D01*
X916858Y535858D01*
X916791Y535659D01*
X916062Y535062D01*
X915400Y534798D01*
X914870Y534665D01*
X914274Y534069D01*
X913214Y533406D01*
X912551Y532214D01*
X912087Y531750D01*
X911160Y531220D01*
X910762Y530822D01*
X909835Y530293D01*
X909239Y529696D01*
X909106Y529431D01*
X908378Y528703D01*
X908112Y528570D01*
X907781Y528239D01*
X907649Y527974D01*
X907384Y527709D01*
X907251Y527444D01*
X906721Y526649D01*
X906589Y526384D01*
X905595Y525390D01*
X905330Y525257D01*
X904270Y524198D01*
X903607Y524065D01*
X903276Y524529D01*
X903409Y525059D01*
X903806Y525721D01*
X904469Y526914D01*
X905529Y527974D01*
X905860Y528438D01*
X906456Y529166D01*
X906589Y529431D01*
X906986Y529829D01*
X907119Y530094D01*
X907318Y530293D01*
X907582Y530425D01*
X908775Y531618D01*
X909040Y531750D01*
X909636Y532346D01*
X909769Y532611D01*
X910034Y532876D01*
X910166Y533141D01*
X910630Y533605D01*
X910895Y533737D01*
X911160Y534002D01*
X911425Y534135D01*
X912021Y534731D01*
X913611Y535791D01*
X913678Y535858D01*
X914141Y536189D01*
X914870Y536785D01*
X915798Y537315D01*
X916328Y537448D01*
X917255Y537315D01*
D02*
G37*
G36*
X908643Y524992D02*
X908907Y524860D01*
X909504Y524264D01*
X909636Y523999D01*
X910365Y523402D01*
X910630Y523270D01*
X911028Y522873D01*
X911226Y522144D01*
X911094Y521614D01*
X910895Y521415D01*
X910232Y521283D01*
X909703Y521415D01*
X909504Y521614D01*
X909371Y521879D01*
X909106Y522144D01*
X908974Y522409D01*
X908576Y522806D01*
X908510Y522873D01*
X907980Y523402D01*
X907318Y524463D01*
X907119Y525191D01*
X907450Y525522D01*
X908643Y524992D01*
D02*
G37*
G36*
X918447Y519825D02*
X918646Y519626D01*
X918779Y519361D01*
X919508Y518633D01*
X920104Y517904D01*
X920236Y517639D01*
X921097Y517175D01*
X921561Y516711D01*
X921694Y516049D01*
X921429Y515386D01*
X921230Y515187D01*
X920634Y514459D01*
X920501Y514194D01*
X919971Y513399D01*
X919309Y512206D01*
X919110Y512007D01*
X918183Y511478D01*
X917984Y511279D01*
X917454Y510351D01*
X916725Y509888D01*
X916460Y509755D01*
X916129Y509424D01*
X915996Y509159D01*
X916460Y508960D01*
X916990Y509092D01*
X917653Y509755D01*
X918315Y509888D01*
X920833Y510020D01*
X921363Y509888D01*
X921959Y509556D01*
X922754Y509026D01*
X923880Y508828D01*
X924808Y508563D01*
X925404Y508231D01*
X925536Y507569D01*
X925338Y507370D01*
X923880Y507238D01*
X922290Y507635D01*
X921363Y507767D01*
X920303Y507503D01*
X919574Y507304D01*
X918249Y506774D01*
X917719Y506641D01*
X916129Y506509D01*
X915267Y506310D01*
X914737Y506177D01*
X913412Y506310D01*
X912551Y506641D01*
X912154Y507304D01*
X912286Y508761D01*
X912419Y509159D01*
X912551Y511809D01*
X912485Y511875D01*
X912419Y511941D01*
X912286Y512736D01*
X912154Y513266D01*
X911889Y513929D01*
X911292Y514393D01*
X911028Y514525D01*
X910564Y515254D01*
X910696Y515784D01*
X911226Y516711D01*
X911359Y517241D01*
X911226Y517771D01*
X911359Y518301D01*
X911557Y518500D01*
X911955Y518633D01*
X913678Y517837D01*
X914208Y517970D01*
X914870Y518235D01*
X916062Y518898D01*
X916328Y519030D01*
X916526Y519229D01*
X917255Y519825D01*
X917917Y519958D01*
X918447Y519825D01*
D02*
G37*
G36*
X911690Y543013D02*
X912286Y542416D01*
X912220Y541953D01*
X911955Y541820D01*
X910895Y541555D01*
X909437Y540892D01*
X907450Y539832D01*
X905993Y539038D01*
X905727Y538773D01*
X905462Y538640D01*
X905198Y538375D01*
X904005Y537713D01*
X903607Y537315D01*
X903343Y537183D01*
X903077Y536917D01*
X902614Y536586D01*
X900957Y535327D01*
X899765Y534665D01*
X899500Y534533D01*
X898440Y533870D01*
X898175Y533737D01*
X898109Y533671D01*
X897910Y533605D01*
X897115Y533075D01*
X895922Y532412D01*
X895658Y532280D01*
X894929Y531551D01*
X894399Y530624D01*
X894001Y529696D01*
X893736Y529034D01*
X893471Y528769D01*
X893339Y528504D01*
X892345Y527775D01*
X892080Y527643D01*
X891550Y527113D01*
X891285Y526980D01*
X890622Y526317D01*
X890026Y525589D01*
X889297Y524992D01*
X889033Y524860D01*
X888503Y524330D01*
X888238Y524198D01*
X887442Y523402D01*
X887178Y523270D01*
X886913Y522873D01*
X886647Y522740D01*
X885853Y521945D01*
X885389Y521614D01*
X884660Y521017D01*
X883733Y520488D01*
X883269Y520024D01*
X882606Y519096D01*
X882474Y518831D01*
X880950Y517308D01*
X880685Y517175D01*
X880619Y516976D01*
X879890Y516247D01*
X879625Y516115D01*
X878962Y515452D01*
X878698Y515320D01*
X878432Y515055D01*
X878167Y514922D01*
X877770Y514525D01*
X877505Y514393D01*
X876445Y513332D01*
X876180Y513200D01*
X875915Y512935D01*
X875650Y512803D01*
X875385Y512537D01*
X875120Y512405D01*
X874723Y512007D01*
X874457Y511875D01*
X873265Y510682D01*
X873000Y510550D01*
X872801Y510351D01*
X872073Y509755D01*
X871410Y509357D01*
X870615Y508828D01*
X869688Y508298D01*
X868760Y508165D01*
X868429Y508496D01*
X868296Y509291D01*
X869025Y509888D01*
X869290Y510020D01*
X870085Y510815D01*
X871012Y511345D01*
X871277Y511478D01*
X872337Y512537D01*
X872602Y512670D01*
X873265Y513332D01*
X874457Y514260D01*
X874723Y514393D01*
X875782Y515452D01*
X876048Y515585D01*
X876312Y515850D01*
X876578Y515983D01*
X877903Y517308D01*
X878167Y517440D01*
X878565Y517837D01*
X879758Y518765D01*
X880023Y518898D01*
X880619Y519626D01*
X880751Y519891D01*
X882209Y521349D01*
X882341Y521614D01*
X883203Y522475D01*
X883467Y522607D01*
X883733Y522873D01*
X883997Y523005D01*
X885058Y523667D01*
X885654Y524396D01*
X885985Y524860D01*
X887178Y525522D01*
X887509Y525854D01*
X887641Y526119D01*
X888370Y526847D01*
X888635Y526980D01*
X888834Y527179D01*
X888966Y527444D01*
X889231Y527709D01*
X889364Y527974D01*
X889695Y528305D01*
X889960Y528438D01*
X890225Y528703D01*
X890490Y528835D01*
X890954Y529696D01*
X891683Y530425D01*
X892279Y531154D01*
X892809Y532081D01*
X893471Y533274D01*
X893935Y533737D01*
X895127Y534400D01*
X897645Y535725D01*
X898572Y536255D01*
X899368Y536387D01*
X900163Y536917D01*
X901620Y537713D01*
X902945Y538640D01*
X903210Y538773D01*
X903409Y538971D01*
X905065Y540230D01*
X906191Y540826D01*
X907251Y541489D01*
X908510Y541953D01*
X910034Y542681D01*
X910696Y542946D01*
X911226Y543079D01*
X911690Y543013D01*
D02*
G37*
G36*
X929114Y506376D02*
X929776Y506111D01*
X930638Y505780D01*
X933420Y504455D01*
X934613Y504323D01*
X935540Y504720D01*
X936335Y504852D01*
X936468D01*
X937793Y504720D01*
X938720Y504852D01*
X939118Y504985D01*
X940111Y504919D01*
X940774Y504786D01*
X941900Y504588D01*
X942430Y504455D01*
X943092Y504190D01*
X944020Y503262D01*
X944616Y502534D01*
X944749Y501739D01*
X944881Y501341D01*
X944749Y500281D01*
X944351Y499354D01*
X944086Y499089D01*
X943954Y498824D01*
X943357Y498228D01*
X943092Y498095D01*
X942828Y497830D01*
X942562Y497697D01*
X942298Y497433D01*
X942032Y497300D01*
X941105Y496637D01*
X939648Y495843D01*
X939118Y495710D01*
X937925Y496240D01*
X936998Y495843D01*
X935805Y495710D01*
X935407Y495843D01*
X933884Y495776D01*
X933354Y495644D01*
X929180Y495710D01*
X928650Y495843D01*
X927325Y496240D01*
X926397Y496637D01*
X925205Y496770D01*
X924542Y497035D01*
X924277Y497168D01*
X923880Y497565D01*
X922754Y498161D01*
X921959Y498691D01*
X921296Y498956D01*
X920766Y499089D01*
X919971Y499221D01*
X918845Y499420D01*
X917520Y499287D01*
X917321Y499089D01*
X917189Y498426D01*
X917321Y498029D01*
X916990Y497168D01*
X914737Y495975D01*
X914473Y495710D01*
X914208Y495578D01*
X913479Y494849D01*
X911823Y493590D01*
X911160Y493192D01*
X910431Y492861D01*
X909636Y492331D01*
X908775Y492000D01*
X907649Y491536D01*
X906390Y491073D01*
X905727Y490807D01*
X904999Y490476D01*
X904137Y490145D01*
X901355Y488820D01*
X900626Y488489D01*
X899964Y488224D01*
X899301Y488091D01*
X897645Y487892D01*
X895127Y488025D01*
X894465Y487760D01*
X894200Y487627D01*
X893802Y487230D01*
X893538Y487098D01*
X893140Y486700D01*
X892875Y486567D01*
X891417Y485110D01*
X891152Y484977D01*
X890821Y484646D01*
X890689Y484381D01*
X890291Y483984D01*
X890159Y483719D01*
X889894Y483454D01*
X889761Y480804D01*
X889496Y480141D01*
X889364Y479876D01*
X889165Y479678D01*
X887906Y478021D01*
X887774Y477756D01*
X887045Y477028D01*
X885853Y476365D01*
X885654Y476166D01*
X884991Y475901D01*
X883865Y475703D01*
X883070Y475173D01*
X882275Y475040D01*
X881612Y475305D01*
X879360Y475438D01*
X878698Y475703D01*
X877505Y475835D01*
X877174Y475239D01*
X877306Y474841D01*
X877770Y474510D01*
X878035Y474378D01*
X878631Y473649D01*
X878764Y473384D01*
X879161Y472986D01*
X879294Y472324D01*
X879161Y471794D01*
X878896Y471529D01*
X878764Y471264D01*
X877770Y470270D01*
X877505Y470137D01*
X875253Y467885D01*
X874987Y467752D01*
X874325Y467090D01*
X874060Y466958D01*
X873464Y466361D01*
X873331Y466096D01*
X873132Y466030D01*
X872868Y465765D01*
X872404Y465434D01*
X871675Y464837D01*
X871410Y464705D01*
X870482Y464308D01*
X869886Y463579D01*
X869754Y463314D01*
X869555Y463115D01*
X869290Y462982D01*
X868760Y462453D01*
X868495Y462320D01*
X867170Y460995D01*
X866905Y460863D01*
X865182Y459140D01*
X864918Y459007D01*
X862996Y457086D01*
X862268Y456490D01*
X860943Y456357D01*
X860015Y456225D01*
X859684Y455894D01*
X859551Y455629D01*
X858822Y454900D01*
X858359Y454569D01*
X858226Y454304D01*
X857829Y453906D01*
X857696Y453641D01*
X857100Y453045D01*
X856835Y452912D01*
X856106Y452184D01*
X855974Y451919D01*
X855576Y451521D01*
X854847Y450925D01*
X854583Y450793D01*
X853854Y450064D01*
X853721Y449799D01*
X853324Y449401D01*
X852794Y448474D01*
X852529Y448209D01*
X852396Y447944D01*
X852197Y447878D01*
X851866Y447546D01*
X851734Y447281D01*
X851469Y447016D01*
X851336Y446486D01*
X850674Y445559D01*
X849879Y444101D01*
X849349Y443174D01*
X849216Y442114D01*
X849084Y441584D01*
X848156Y440259D01*
X848024Y439994D01*
X847295Y439265D01*
X846500Y439132D01*
X845970Y439265D01*
X845639Y439596D01*
X845109Y440524D01*
X844844Y441186D01*
X844711Y441451D01*
X844512Y441517D01*
X843850Y442578D01*
X843651Y443439D01*
X843519Y443836D01*
X843585Y444035D01*
X843850Y443770D01*
X844115Y443638D01*
X844645Y442975D01*
X845109Y441716D01*
X845440Y441385D01*
X846367Y441253D01*
X846765Y441650D01*
X847229Y442909D01*
X847825Y444300D01*
X848156Y445161D01*
X848819Y446089D01*
X849481Y447281D01*
X850674Y449534D01*
X850939Y449799D01*
X851071Y450064D01*
X851336Y450329D01*
X851469Y450594D01*
X852595Y451720D01*
X852860Y451852D01*
X853390Y452383D01*
X853655Y452515D01*
X854317Y453177D01*
X854583Y453310D01*
X854649Y453509D01*
X854847Y453575D01*
X855908Y454635D01*
X856172Y454767D01*
X860479Y459074D01*
X860611Y459339D01*
X862201Y460929D01*
X862930Y461525D01*
X864122Y461393D01*
X864652Y461525D01*
X865315Y462188D01*
X865911Y463844D01*
X866176Y464109D01*
X866905Y464705D01*
X867369Y465036D01*
X868098Y465633D01*
X869555Y466427D01*
X869820Y466693D01*
X870085Y466825D01*
X871940Y468680D01*
X872205Y468812D01*
X872470Y469077D01*
X872735Y469210D01*
X873265Y469740D01*
X873530Y469873D01*
X873994Y470336D01*
X874126Y471396D01*
X873795Y471727D01*
X873530Y471860D01*
X871609Y472721D01*
X870218Y473052D01*
X868627Y473450D01*
X867700Y473582D01*
X866773Y473980D01*
X865315Y474113D01*
X863725Y473848D01*
X863327Y473715D01*
X859551Y473781D01*
X858491Y474046D01*
X857497Y474245D01*
X856967Y474378D01*
X856040Y474510D01*
X855113Y474907D01*
X854847Y475040D01*
X854516Y475371D01*
X854384Y475901D01*
X854847Y476232D01*
X855245Y476100D01*
X856967Y475570D01*
X857895Y475438D01*
X859220Y475570D01*
X859617Y475703D01*
X861605Y475570D01*
X862135Y475703D01*
X863460Y475835D01*
X863857Y475967D01*
X865580Y476100D01*
X867104Y475371D01*
X868561Y474841D01*
X869621Y474576D01*
X870284Y474444D01*
X871145Y474245D01*
X871874Y474046D01*
X872735Y473848D01*
X873795Y473582D01*
X874723Y473185D01*
X875915Y473052D01*
X876246Y473516D01*
X876114Y474046D01*
X874987Y474907D01*
X874723Y475040D01*
X874126Y475769D01*
X874193Y476365D01*
X874656Y476696D01*
X876114Y477226D01*
X876776Y477359D01*
X882010Y477293D01*
X882937Y477425D01*
X884262Y477822D01*
X884925Y478088D01*
X885190Y478353D01*
X885455Y478485D01*
X885720Y478750D01*
X885985Y478882D01*
X886515Y479412D01*
X886780Y479545D01*
X887178Y479943D01*
X887774Y480671D01*
X887906Y482261D01*
X887708Y482460D01*
X887178Y482593D01*
X886647Y482460D01*
X885720Y481533D01*
X885455Y481400D01*
X885256Y481201D01*
X884594Y480936D01*
X883997Y481003D01*
X883799Y481201D01*
X883666Y481731D01*
X883931Y482394D01*
X884130Y482593D01*
X885322Y483520D01*
X885587Y483652D01*
X886449Y484514D01*
X886780Y484977D01*
X887111Y485839D01*
X887442Y486170D01*
X888105Y486302D01*
X888503Y486170D01*
X889297Y486037D01*
X889827Y486170D01*
X890159Y486501D01*
X891086Y487694D01*
X891219Y489284D01*
X891550Y489615D01*
X892014Y489814D01*
X892875Y490145D01*
X893935Y490807D01*
X894200Y490940D01*
X895127Y491603D01*
X896055Y492132D01*
X896718Y492397D01*
X897115Y492530D01*
X899235Y492663D01*
X899632Y492795D01*
X902018Y492928D01*
X902415Y492795D01*
X904005Y492663D01*
X904402Y492795D01*
X905993Y492663D01*
X907185Y493192D01*
X907450Y493325D01*
X907715Y493590D01*
X907980Y493722D01*
X908907Y494385D01*
X909173Y494518D01*
X910100Y495445D01*
X910365Y495578D01*
X910829Y496041D01*
X912485Y497300D01*
X912750Y497433D01*
X913545Y497962D01*
X914737Y498625D01*
X915400Y498890D01*
X915930Y499022D01*
X916195Y499420D01*
X916129Y500414D01*
X916725Y501010D01*
X919110Y501143D01*
X921230Y501010D01*
X922290Y500745D01*
X922952Y500480D01*
X924145Y499950D01*
X926397Y498890D01*
X927325Y498493D01*
X927789Y498029D01*
X928451Y497764D01*
X929114Y497631D01*
X930638Y497433D01*
X931963Y497035D01*
X932625Y496770D01*
X934215Y496637D01*
X934613Y496505D01*
X935275Y496637D01*
X936202Y496770D01*
X936865Y497035D01*
X938124Y497234D01*
X938852Y497433D01*
X939780Y497830D01*
X940178Y498228D01*
X940443Y498360D01*
X941436Y499354D01*
X941569Y499619D01*
X941768Y499818D01*
X942298Y500612D01*
X942894Y501341D01*
X943026Y502004D01*
X942828Y502600D01*
X941635Y503262D01*
X941370Y503395D01*
X941105Y503660D01*
X939780Y503792D01*
X938985Y503262D01*
X938720Y503130D01*
X938521Y502931D01*
X937859Y502799D01*
X936732Y502865D01*
X935805Y502467D01*
X935540Y502335D01*
X935275Y502070D01*
X934215Y501937D01*
X933089Y502534D01*
X932426Y502799D01*
X931565Y503130D01*
X930638Y503792D01*
X930372Y503925D01*
X929445Y504588D01*
X928252Y505250D01*
X927789Y505714D01*
X927656Y506244D01*
X927988Y506575D01*
X928252Y506707D01*
X929114Y506376D01*
D02*
G37*
G36*
X844976Y503594D02*
X845109Y502931D01*
Y502799D01*
X844976Y502136D01*
X844844Y501739D01*
X844976Y501076D01*
X845573Y500612D01*
X846500Y500877D01*
X847361Y501341D01*
X848090Y501937D01*
X849415Y502070D01*
X850342Y501673D01*
X850608Y501540D01*
X850872Y501275D01*
X851137Y501143D01*
X851866Y500414D01*
X851999Y500149D01*
X852197Y499950D01*
X852728Y498493D01*
X852926Y497234D01*
X853059Y495909D01*
X852926Y495511D01*
X852794Y492596D01*
X852661Y491669D01*
X852330Y491338D01*
X851667Y491205D01*
X851469Y491404D01*
X851204Y492066D01*
X851071Y497366D01*
X850806Y498294D01*
X850078Y498890D01*
X849283Y498758D01*
X847494Y496969D01*
X846831Y495776D01*
X846235Y494650D01*
X846036Y493921D01*
X845639Y492994D01*
X845506Y492066D01*
X845639Y491139D01*
X845837Y490940D01*
X846103Y490807D01*
X846633Y490940D01*
X846765Y491205D01*
X847428Y492265D01*
X847692Y492928D01*
X847891Y493656D01*
X848156Y494319D01*
X849084Y496306D01*
X849283Y496505D01*
X849680Y496637D01*
X850276Y496439D01*
X850409Y495511D01*
X849945Y494385D01*
X849680Y493722D01*
X849548Y493192D01*
X849349Y492464D01*
X848289Y490211D01*
X847891Y489284D01*
X847626Y489019D01*
X847494Y488091D01*
X848090Y487627D01*
X848951Y487694D01*
X850011Y487959D01*
X850608Y487892D01*
X850939Y487561D01*
X851071Y487296D01*
X851535Y486965D01*
X852661Y486369D01*
X852860Y485905D01*
X852794Y485574D01*
X852595Y485375D01*
X851535Y485243D01*
X850872Y485508D01*
X850342Y485640D01*
X849945Y485773D01*
X848686Y485706D01*
X847361Y485441D01*
X847030Y485508D01*
X846500Y485640D01*
X845639Y486766D01*
X845506Y487031D01*
X844711Y487826D01*
X844579Y488091D01*
X844380Y488290D01*
X843519Y489549D01*
X842591Y491271D01*
X842459Y494584D01*
X842194Y495644D01*
X841862Y495843D01*
X841332Y495578D01*
X841266Y495379D01*
X841001Y495114D01*
X840869Y494849D01*
X840405Y494518D01*
X839676Y494584D01*
X839544Y495246D01*
X839875Y495975D01*
X840007Y496505D01*
X839941Y497631D01*
X840074Y498161D01*
X841134Y500414D01*
X841266Y500679D01*
X841465Y500877D01*
X841796Y501739D01*
X841929Y502269D01*
X843055Y503395D01*
X843519Y503726D01*
X844248Y503925D01*
X844976Y503594D01*
D02*
G37*
G36*
X849017Y521150D02*
X849614Y520554D01*
X850342Y519958D01*
X851601Y518301D01*
X852529Y517109D01*
X852661Y516844D01*
X853258Y516247D01*
X853854Y515519D01*
X853986Y515254D01*
X855046Y514194D01*
X855709Y513001D01*
X855974Y512736D01*
X856106Y512471D01*
X857497Y511080D01*
X857763Y510947D01*
X858094Y510616D01*
X858558Y509888D01*
X858756Y509159D01*
X859088Y508828D01*
X860280Y508695D01*
X860677Y508828D01*
X862201Y508629D01*
X863261Y508496D01*
X865182Y508298D01*
X865580Y508430D01*
X866507Y508298D01*
X867302Y507767D01*
X868098Y507635D01*
X868627Y507503D01*
X869356Y507171D01*
X871012Y506575D01*
X871543Y506442D01*
X873530Y505515D01*
X874987Y505382D01*
X876114Y505714D01*
X876975Y506045D01*
X877505Y506177D01*
X878432Y506442D01*
X879161Y506641D01*
X881348Y507105D01*
X882076Y507304D01*
X882606Y507436D01*
X884130Y507635D01*
X885190Y507900D01*
X886515Y508032D01*
X886913Y508165D01*
X888767Y508298D01*
X889297Y508165D01*
X889960Y507900D01*
X890888Y507503D01*
X891219Y507171D01*
X891351Y505846D01*
X891219Y505316D01*
X890954Y504654D01*
X888701Y500016D01*
X888039Y498956D01*
X887906Y498691D01*
X887509Y498294D01*
X886714Y496836D01*
X886316Y496439D01*
X886184Y496174D01*
X885786Y495776D01*
X885654Y495511D01*
X884991Y494849D01*
X884859Y494584D01*
X883600Y493325D01*
X883335Y493192D01*
X882275Y492132D01*
X882010Y492000D01*
X881546Y491404D01*
X881414Y490741D01*
X881546Y490344D01*
X881679Y490079D01*
X882937Y488820D01*
X884792Y488688D01*
X885322Y488555D01*
X885521Y488224D01*
X885455Y487892D01*
X884528Y487230D01*
X883203Y487098D01*
X882673Y487230D01*
X882010Y487495D01*
X881215Y488025D01*
X880950Y488158D01*
X880221Y488886D01*
X880089Y489151D01*
X879559Y489681D01*
X878830Y490277D01*
X878167Y490675D01*
X877704Y491271D01*
X877836Y491801D01*
X878035Y491867D01*
X878234Y492066D01*
X879095Y492397D01*
X880023Y493060D01*
X880287Y493192D01*
X881215Y494120D01*
X881480Y494253D01*
X883269Y496041D01*
X883401Y496306D01*
X883666Y496571D01*
X883799Y496836D01*
X884991Y498029D01*
X885124Y498294D01*
X885389Y498559D01*
X885521Y498824D01*
X886184Y499884D01*
X888701Y504654D01*
X888834Y505184D01*
X888701Y505714D01*
X888238Y506045D01*
X887509Y505979D01*
X885389Y505449D01*
X884726Y505316D01*
X884196Y505184D01*
X882540Y504985D01*
X882408D01*
X881944Y504919D01*
X880884Y504654D01*
X879625Y504190D01*
X879095Y504058D01*
X878167Y503792D01*
X877637Y503660D01*
X876975Y503395D01*
X876776Y503196D01*
X875451Y502666D01*
X874723Y502467D01*
X874193Y502600D01*
X871940Y503660D01*
X870748Y504190D01*
X869886Y504521D01*
X867832Y505250D01*
X866176Y505979D01*
X865182Y506177D01*
X864652Y506310D01*
X863526Y506641D01*
X862466Y507039D01*
X861075Y507238D01*
X859750Y507370D01*
X858822Y507767D01*
X858226Y508496D01*
X858094Y508761D01*
X856636Y509689D01*
X855908Y510285D01*
X855642Y510418D01*
X854914Y511146D01*
X854781Y511411D01*
X852529Y514591D01*
X851601Y515784D01*
X851071Y516711D01*
X850939Y516976D01*
X850541Y517374D01*
X850409Y517639D01*
X849812Y518235D01*
X849017Y518368D01*
X848620Y518235D01*
X848355Y518102D01*
X847494Y516446D01*
X846831Y515254D01*
X846699Y514989D01*
X846500Y514790D01*
X846103Y513730D01*
X845970Y513200D01*
X845837Y512537D01*
X845705Y512007D01*
X845573Y511345D01*
X845307Y510285D01*
X844844Y508099D01*
X844512Y507370D01*
X843982Y507238D01*
X843386Y507436D01*
X842989Y508099D01*
X843121Y508629D01*
X843386Y509291D01*
X843519Y509689D01*
X843386Y511014D01*
X843519Y511544D01*
X843982Y512670D01*
X844115Y513200D01*
X844314Y514061D01*
X844579Y514724D01*
X844711Y515784D01*
X845109Y516711D01*
X845904Y518169D01*
X846699Y518964D01*
X847030Y519427D01*
X847295Y520090D01*
X847494Y520819D01*
X847825Y521150D01*
X848487Y521283D01*
X849017Y521150D01*
D02*
G37*
G36*
X866375Y492795D02*
X866640Y492397D01*
X866773Y491735D01*
X866706Y490874D01*
X866574Y490344D01*
X866309Y489681D01*
X866110Y489482D01*
X865779Y488091D01*
X865646Y487561D01*
X864918Y485905D01*
X864785Y485375D01*
X864586Y484646D01*
X863990Y484050D01*
X863327Y483918D01*
X863195Y484183D01*
X862864Y485044D01*
X862731Y485441D01*
X862599Y487164D01*
X863195Y488555D01*
X863394Y489284D01*
X863460Y489350D01*
X864321Y491006D01*
X864851Y492199D01*
X864984Y492464D01*
X865845Y492928D01*
X866375Y492795D01*
D02*
G37*
G36*
X867568Y497830D02*
X868495Y497697D01*
X869423Y497300D01*
X869688Y497168D01*
X869952Y496903D01*
X870416Y496571D01*
X870549Y496306D01*
X870946Y495909D01*
X871079Y495644D01*
X871145Y495578D01*
X871277Y495312D01*
X872337Y493722D01*
X872602Y493060D01*
X873000Y492000D01*
X873398Y490410D01*
X873596Y489151D01*
X873729Y488754D01*
X873861Y485574D01*
X873729Y484646D01*
X873398Y483785D01*
X872735Y483387D01*
X872205Y483520D01*
X871874Y483851D01*
X871741Y485044D01*
X871874Y485441D01*
X872006Y487959D01*
X871874Y488489D01*
X871609Y489416D01*
X871344Y490476D01*
X871211Y491404D01*
X871079Y491934D01*
X870681Y492861D01*
X870151Y493789D01*
X869886Y494451D01*
X869621Y494716D01*
X869489Y494981D01*
X868826Y495644D01*
X868098Y496240D01*
X867038Y496372D01*
X866110Y496107D01*
X865447Y495843D01*
X865182Y495578D01*
X864918Y495445D01*
X864056Y494584D01*
X863526Y493656D01*
X863394Y493391D01*
X862996Y492994D01*
X862864Y492729D01*
X862599Y492464D01*
X862466Y492199D01*
X861936Y491669D01*
X861141Y490211D01*
X860876Y489549D01*
X860744Y488091D01*
X860545Y486302D01*
X860346Y484116D01*
X860611Y483189D01*
X861075Y482725D01*
X862002Y482593D01*
X862400Y482725D01*
X862930Y482858D01*
X863129Y482659D01*
X863261Y482394D01*
X863593Y481533D01*
X864520Y481003D01*
X865315Y480870D01*
X865713Y480737D01*
X866375Y480870D01*
X867302Y481135D01*
X868296Y481731D01*
X869952Y482858D01*
X870814Y482791D01*
X870946Y482261D01*
X870549Y481334D01*
X869489Y480274D01*
X868429Y479611D01*
X867766Y479346D01*
X866507Y479147D01*
X865580Y479015D01*
X865050Y479147D01*
X864122Y479280D01*
X863195Y479545D01*
X862002Y480075D01*
X859485Y481400D01*
X859220Y481665D01*
X858955Y481797D01*
X858094Y482924D01*
X857961Y483454D01*
X857829Y483851D01*
X857961Y484381D01*
X858491Y485574D01*
X858624Y486104D01*
X858756Y486501D01*
X858690Y486700D01*
X858756Y488621D01*
X858889Y489151D01*
X859021Y490079D01*
X859816Y491801D01*
X860214Y492729D01*
X860346Y492994D01*
X860611Y493259D01*
X860744Y493524D01*
X861274Y494054D01*
X862201Y495246D01*
X862334Y495511D01*
X863327Y496505D01*
X863593Y496637D01*
X863857Y496903D01*
X864122Y497035D01*
X865050Y497697D01*
X865580Y497830D01*
X865977Y497962D01*
X867568Y497830D01*
D02*
G37*
G36*
X840273Y492397D02*
X840471Y491934D01*
X840206Y491139D01*
X839146Y490079D01*
X838616Y489151D01*
X838484Y487429D01*
X838616Y487031D01*
X838749Y484911D01*
X839279Y483189D01*
X839610Y482327D01*
X840140Y481533D01*
X840471Y480671D01*
X840670Y480472D01*
X840935Y480340D01*
X841995Y480605D01*
X842923Y480340D01*
X843187Y480075D01*
X843453Y479943D01*
X844115Y479280D01*
X844380Y479147D01*
X845307Y478485D01*
X846765Y477690D01*
X848421Y476961D01*
X849680Y476497D01*
X850144Y475901D01*
X850276Y475106D01*
X849746Y473914D01*
X849481Y473649D01*
X849349Y472854D01*
X848951Y471926D01*
X848819Y471661D01*
X848421Y471264D01*
X848289Y470336D01*
X848554Y469674D01*
X848487Y468680D01*
X847560Y468150D01*
X847295Y467885D01*
X847030Y467752D01*
X846434Y467156D01*
X845109Y464639D01*
X844844Y463976D01*
X844446Y462651D01*
X843916Y461326D01*
X843784Y459471D01*
X843651Y458941D01*
X843453Y458213D01*
X843254Y457351D01*
X842790Y456888D01*
X842525Y456755D01*
X842194Y456424D01*
X842061Y455761D01*
X842326Y455099D01*
X843055Y454502D01*
X843850Y454635D01*
X844181Y454966D01*
X844711Y455894D01*
X845241Y457086D01*
X845307Y457152D01*
X845374Y457351D01*
X845904Y458544D01*
X846434Y459074D01*
X846964Y460001D01*
X847162Y460200D01*
X848024Y461459D01*
X848156Y461724D01*
X848620Y462188D01*
X848885Y462320D01*
X849216Y462651D01*
X849349Y462916D01*
X850078Y463645D01*
X850342Y463778D01*
X850872Y464308D01*
X851137Y464440D01*
X852462Y465765D01*
X852728Y465897D01*
X852926Y466096D01*
X853655Y466693D01*
X854317Y466825D01*
X854914Y466626D01*
X855113Y466162D01*
X855046Y465699D01*
X854583Y465235D01*
X854317Y465103D01*
X853788Y464572D01*
X853522Y464440D01*
X853258Y464175D01*
X852794Y463844D01*
X852065Y463247D01*
X851800Y463115D01*
X851137Y462453D01*
X850872Y462320D01*
X850608Y462055D01*
X850342Y461922D01*
X849879Y461459D01*
X849746Y461194D01*
X849017Y460465D01*
X848421Y459736D01*
X848289Y459471D01*
X847759Y458676D01*
X847096Y457484D01*
X846831Y456821D01*
X846566Y456556D01*
X846434Y456291D01*
X846235Y456092D01*
X845374Y453641D01*
X845109Y452979D01*
X844512Y452383D01*
X843320Y452250D01*
X842393Y452912D01*
X842128Y453045D01*
X841266Y453376D01*
X840736Y454304D01*
X840604Y455894D01*
X840869Y456954D01*
X841664Y458146D01*
X842128Y459140D01*
X842260Y459670D01*
X842459Y460399D01*
X842724Y461459D01*
X843055Y462320D01*
X843320Y462982D01*
X843519Y463844D01*
X843651Y464374D01*
X844314Y465831D01*
X844579Y466494D01*
X844976Y467421D01*
X845109Y467686D01*
X845639Y468216D01*
X845771Y468481D01*
X845970Y468680D01*
X846566Y469409D01*
X846699Y469674D01*
X846831Y470071D01*
X846699Y470336D01*
X846831Y473384D01*
X846036Y475106D01*
X845904Y475371D01*
X844645Y476630D01*
X844380Y476763D01*
X843982Y477160D01*
X843717Y477293D01*
X843320Y477690D01*
X843055Y477822D01*
X842790Y478088D01*
X841598Y479015D01*
X841332Y479147D01*
X840537Y479943D01*
X840273Y480075D01*
X839743Y480207D01*
X838550Y480737D01*
X838285Y481003D01*
X838020Y481135D01*
X837821Y481334D01*
X837291Y482261D01*
X837357Y482858D01*
X837291Y487031D01*
X837159Y487429D01*
X837424Y490211D01*
X837954Y491404D01*
X838086Y491669D01*
X838418Y492000D01*
X838682Y492132D01*
X838948Y492397D01*
X839743Y492530D01*
X840273Y492397D01*
D02*
G37*
G36*
X842591Y449534D02*
X842724Y447414D01*
X842525Y446818D01*
X842326Y446884D01*
X841862Y448143D01*
X841796Y448209D01*
X841730Y448540D01*
X841531Y449401D01*
X841664Y449931D01*
X842128Y450130D01*
X842591Y449534D01*
D02*
G37*
G36*
X843386Y444896D02*
X843519Y444234D01*
Y444101D01*
X843453Y444035D01*
X843121Y444499D01*
X843187Y445095D01*
X843386Y444896D01*
D02*
G37*
%LPC*%
G36*
X966413Y634173D02*
X966081Y633974D01*
X965949Y633444D01*
X966148Y633245D01*
X966545Y633112D01*
X966611Y633179D01*
X966876Y633576D01*
X966744Y633974D01*
X966413Y634173D01*
D02*
G37*
G36*
X964955Y632450D02*
X964160D01*
X964094Y631854D01*
X964226Y631324D01*
X964557Y631125D01*
X965286Y631191D01*
X965419Y631721D01*
X965286Y632251D01*
X965021Y632384D01*
X964955Y632450D01*
D02*
G37*
G36*
X917917Y517573D02*
X917255Y517308D01*
X916328Y516645D01*
X916062Y516512D01*
X915665Y516115D01*
X915201Y515784D01*
X914473Y515187D01*
X913942Y515055D01*
X913346Y514459D01*
X913214Y513399D01*
X913346Y512869D01*
X913744Y512206D01*
X913876Y511941D01*
X914473Y511345D01*
X915533Y511213D01*
X915798Y511478D01*
X916062Y511610D01*
X916328Y511875D01*
X916592Y512007D01*
X917189Y512604D01*
X917321Y512869D01*
X918646Y514194D01*
X918779Y514459D01*
X919309Y514989D01*
Y515121D01*
X919441Y515254D01*
X919574Y516049D01*
X919441Y516579D01*
X918580Y517440D01*
X917917Y517573D01*
D02*
G37*
%LPD*%
D14*
X867491Y744198D02*
X868740Y745448D01*
X871240D01*
X872489Y744198D01*
Y739200D01*
X871240Y737950D01*
X868740D01*
X867491Y739200D01*
Y741699D01*
X869990D01*
X864992Y737950D02*
Y745448D01*
X861243D01*
X859993Y744198D01*
Y741699D01*
X861243Y740449D01*
X864992D01*
X857494Y745448D02*
X854995D01*
X856244D01*
Y737950D01*
X857494D01*
X854995D01*
X847497Y745448D02*
X849996D01*
X851246Y744198D01*
Y739200D01*
X849996Y737950D01*
X847497D01*
X846248Y739200D01*
Y744198D01*
X847497Y745448D01*
X843748Y744198D02*
X842499Y745448D01*
X840000D01*
X838750Y744198D01*
Y742948D01*
X840000Y741699D01*
X838750Y740449D01*
Y739200D01*
X840000Y737950D01*
X842499D01*
X843748Y739200D01*
Y740449D01*
X842499Y741699D01*
X843748Y742948D01*
Y744198D01*
X842499Y741699D02*
X840000D01*
X873739Y718798D02*
X874988Y720048D01*
X877488D01*
X878737Y718798D01*
Y713800D01*
X877488Y712550D01*
X874988D01*
X873739Y713800D01*
Y716299D01*
X876238D01*
X871240Y712550D02*
Y720048D01*
X867491D01*
X866241Y718798D01*
Y716299D01*
X867491Y715049D01*
X871240D01*
X863742Y720048D02*
X861243D01*
X862492D01*
Y712550D01*
X863742D01*
X861243D01*
X853745Y720048D02*
X856244D01*
X857494Y718798D01*
Y713800D01*
X856244Y712550D01*
X853745D01*
X852496Y713800D01*
Y718798D01*
X853745Y720048D01*
X849996Y712550D02*
X847497D01*
X848747D01*
Y720048D01*
X849996Y718798D01*
X843748D02*
X842499Y720048D01*
X840000D01*
X838750Y718798D01*
Y713800D01*
X840000Y712550D01*
X842499D01*
X843748Y713800D01*
Y718798D01*
X867491Y667998D02*
X868740Y669248D01*
X871240D01*
X872489Y667998D01*
Y663000D01*
X871240Y661750D01*
X868740D01*
X867491Y663000D01*
Y665499D01*
X869990D01*
X864992Y661750D02*
Y669248D01*
X861243D01*
X859993Y667998D01*
Y665499D01*
X861243Y664249D01*
X864992D01*
X857494Y669248D02*
X854995D01*
X856244D01*
Y661750D01*
X857494D01*
X854995D01*
X847497Y669248D02*
X849996D01*
X851246Y667998D01*
Y663000D01*
X849996Y661750D01*
X847497D01*
X846248Y663000D01*
Y667998D01*
X847497Y669248D01*
X838750Y661750D02*
X843748D01*
X838750Y666748D01*
Y667998D01*
X840000Y669248D01*
X842499D01*
X843748Y667998D01*
X871240Y693398D02*
X872489Y694648D01*
X874988D01*
X876238Y693398D01*
Y688400D01*
X874988Y687150D01*
X872489D01*
X871240Y688400D01*
Y690899D01*
X873739D01*
X868740Y687150D02*
Y694648D01*
X864992D01*
X863742Y693398D01*
Y690899D01*
X864992Y689649D01*
X868740D01*
X861243Y694648D02*
X858744D01*
X859993D01*
Y687150D01*
X861243D01*
X858744D01*
X851246Y694648D02*
X853745D01*
X854995Y693398D01*
Y688400D01*
X853745Y687150D01*
X851246D01*
X849996Y688400D01*
Y693398D01*
X851246Y694648D01*
X847497Y687150D02*
X844998D01*
X846248D01*
Y694648D01*
X847497Y693398D01*
X841249Y687150D02*
X838750D01*
X840000D01*
Y694648D01*
X841249Y693398D01*
X853745Y591798D02*
X854995Y593048D01*
X857494D01*
X858744Y591798D01*
Y586800D01*
X857494Y585550D01*
X854995D01*
X853745Y586800D01*
Y589299D01*
X856244D01*
X851246Y585550D02*
Y593048D01*
X846248Y585550D01*
Y593048D01*
X843748D02*
Y585550D01*
X840000D01*
X838750Y586800D01*
Y591798D01*
X840000Y593048D01*
X843748D01*
X846248Y618448D02*
X851246D01*
Y614699D01*
X848747Y615948D01*
X847497D01*
X846248Y614699D01*
Y612200D01*
X847497Y610950D01*
X849996D01*
X851246Y612200D01*
X843748Y618448D02*
Y613449D01*
X841249Y610950D01*
X838750Y613449D01*
Y618448D01*
X867491Y642598D02*
X868740Y643848D01*
X871240D01*
X872489Y642598D01*
Y637600D01*
X871240Y636350D01*
X868740D01*
X867491Y637600D01*
Y640099D01*
X869990D01*
X864992Y636350D02*
Y643848D01*
X861243D01*
X859993Y642598D01*
Y640099D01*
X861243Y638849D01*
X864992D01*
X857494Y643848D02*
X854995D01*
X856244D01*
Y636350D01*
X857494D01*
X854995D01*
X847497Y643848D02*
X849996D01*
X851246Y642598D01*
Y637600D01*
X849996Y636350D01*
X847497D01*
X846248Y637600D01*
Y642598D01*
X847497Y643848D01*
X843748Y642598D02*
X842499Y643848D01*
X840000D01*
X838750Y642598D01*
Y641348D01*
X840000Y640099D01*
X841249D01*
X840000D01*
X838750Y638849D01*
Y637600D01*
X840000Y636350D01*
X842499D01*
X843748Y637600D01*
X867491Y845798D02*
X868740Y847048D01*
X871240D01*
X872489Y845798D01*
Y840800D01*
X871240Y839550D01*
X868740D01*
X867491Y840800D01*
Y843299D01*
X869990D01*
X864992Y839550D02*
Y847048D01*
X861243D01*
X859993Y845798D01*
Y843299D01*
X861243Y842049D01*
X864992D01*
X857494Y847048D02*
X854995D01*
X856244D01*
Y839550D01*
X857494D01*
X854995D01*
X847497Y847048D02*
X849996D01*
X851246Y845798D01*
Y840800D01*
X849996Y839550D01*
X847497D01*
X846248Y840800D01*
Y845798D01*
X847497Y847048D01*
X838750D02*
X841249Y845798D01*
X843748Y843299D01*
Y840800D01*
X842499Y839550D01*
X840000D01*
X838750Y840800D01*
Y842049D01*
X840000Y843299D01*
X843748D01*
X867491Y820398D02*
X868740Y821648D01*
X871240D01*
X872489Y820398D01*
Y815400D01*
X871240Y814150D01*
X868740D01*
X867491Y815400D01*
Y817899D01*
X869990D01*
X864992Y814150D02*
Y821648D01*
X861243D01*
X859993Y820398D01*
Y817899D01*
X861243Y816649D01*
X864992D01*
X857494Y821648D02*
X854995D01*
X856244D01*
Y814150D01*
X857494D01*
X854995D01*
X847497Y821648D02*
X849996D01*
X851246Y820398D01*
Y815400D01*
X849996Y814150D01*
X847497D01*
X846248Y815400D01*
Y820398D01*
X847497Y821648D01*
X843748D02*
X838750D01*
Y820398D01*
X843748Y815400D01*
Y814150D01*
X864992Y769598D02*
X866241Y770848D01*
X868740D01*
X869990Y769598D01*
Y764600D01*
X868740Y763350D01*
X866241D01*
X864992Y764600D01*
Y767099D01*
X867491D01*
X862492Y763350D02*
Y770848D01*
X858744D01*
X857494Y769598D01*
Y767099D01*
X858744Y765849D01*
X862492D01*
X854995Y770848D02*
X852496D01*
X853745D01*
Y763350D01*
X854995D01*
X852496D01*
X844998Y770848D02*
X847497D01*
X848747Y769598D01*
Y764600D01*
X847497Y763350D01*
X844998D01*
X843748Y764600D01*
Y769598D01*
X844998Y770848D01*
X841249Y763350D02*
X838750D01*
X840000D01*
Y770848D01*
X841249Y769598D01*
X867491Y794998D02*
X868740Y796248D01*
X871240D01*
X872489Y794998D01*
Y790000D01*
X871240Y788750D01*
X868740D01*
X867491Y790000D01*
Y792499D01*
X869990D01*
X864992Y788750D02*
Y796248D01*
X861243D01*
X859993Y794998D01*
Y792499D01*
X861243Y791249D01*
X864992D01*
X857494Y796248D02*
X854995D01*
X856244D01*
Y788750D01*
X857494D01*
X854995D01*
X847497Y796248D02*
X849996D01*
X851246Y794998D01*
Y790000D01*
X849996Y788750D01*
X847497D01*
X846248Y790000D01*
Y794998D01*
X847497Y796248D01*
X843748Y794998D02*
X842499Y796248D01*
X840000D01*
X838750Y794998D01*
Y790000D01*
X840000Y788750D01*
X842499D01*
X843748Y790000D01*
Y794998D01*
X867491Y896598D02*
X868740Y897848D01*
X871240D01*
X872489Y896598D01*
Y891600D01*
X871240Y890350D01*
X868740D01*
X867491Y891600D01*
Y894099D01*
X869990D01*
X864992Y890350D02*
Y897848D01*
X861243D01*
X859993Y896598D01*
Y894099D01*
X861243Y892849D01*
X864992D01*
X857494Y897848D02*
X854995D01*
X856244D01*
Y890350D01*
X857494D01*
X854995D01*
X847497Y897848D02*
X849996D01*
X851246Y896598D01*
Y891600D01*
X849996Y890350D01*
X847497D01*
X846248Y891600D01*
Y896598D01*
X847497Y897848D01*
X840000Y890350D02*
Y897848D01*
X843748Y894099D01*
X838750D01*
X867491Y871198D02*
X868740Y872448D01*
X871240D01*
X872489Y871198D01*
Y866200D01*
X871240Y864950D01*
X868740D01*
X867491Y866200D01*
Y868699D01*
X869990D01*
X864992Y864950D02*
Y872448D01*
X861243D01*
X859993Y871198D01*
Y868699D01*
X861243Y867449D01*
X864992D01*
X857494Y872448D02*
X854995D01*
X856244D01*
Y864950D01*
X857494D01*
X854995D01*
X847497Y872448D02*
X849996D01*
X851246Y871198D01*
Y866200D01*
X849996Y864950D01*
X847497D01*
X846248Y866200D01*
Y871198D01*
X847497Y872448D01*
X838750D02*
X843748D01*
Y868699D01*
X841249Y869948D01*
X840000D01*
X838750Y868699D01*
Y866200D01*
X840000Y864950D01*
X842499D01*
X843748Y866200D01*
X846248Y923248D02*
X851246D01*
Y915750D01*
X846248D01*
X851246Y919499D02*
X848747D01*
X843748Y915750D02*
Y923248D01*
X838750Y915750D01*
Y923248D01*
X1206002Y947748D02*
X1207251Y948998D01*
X1209750D01*
X1211000Y947748D01*
Y942750D01*
X1209750Y941500D01*
X1207251D01*
X1206002Y942750D01*
Y945249D01*
X1208501D01*
X1203502Y941500D02*
Y948998D01*
X1198504Y941500D01*
Y948998D01*
X1196005D02*
Y941500D01*
X1192256D01*
X1191006Y942750D01*
Y947748D01*
X1192256Y948998D01*
X1196005D01*
X1211000Y923598D02*
X1206002D01*
X1208501D01*
Y916100D01*
X1203502Y923598D02*
X1198504Y916100D01*
Y923598D02*
X1203502Y916100D01*
X1196005Y923598D02*
Y916100D01*
X1192256D01*
X1191006Y917350D01*
Y922348D01*
X1192256Y923598D01*
X1196005D01*
X1188507Y922348D02*
X1187258Y923598D01*
X1184758D01*
X1183509Y922348D01*
Y917350D01*
X1184758Y916100D01*
X1187258D01*
X1188507Y917350D01*
Y922348D01*
X1211000Y890700D02*
Y898198D01*
X1207251D01*
X1206002Y896948D01*
Y894449D01*
X1207251Y893199D01*
X1211000D01*
X1208501D02*
X1206002Y890700D01*
X1203502Y898198D02*
X1198504Y890700D01*
Y898198D02*
X1203502Y890700D01*
X1196005Y898198D02*
Y890700D01*
X1192256D01*
X1191006Y891950D01*
Y896948D01*
X1192256Y898198D01*
X1196005D01*
X1188507Y896948D02*
X1187258Y898198D01*
X1184758D01*
X1183509Y896948D01*
Y891950D01*
X1184758Y890700D01*
X1187258D01*
X1188507Y891950D01*
Y896948D01*
X1206002Y871548D02*
X1207251Y872798D01*
X1209750D01*
X1211000Y871548D01*
Y866550D01*
X1209750Y865300D01*
X1207251D01*
X1206002Y866550D01*
Y869049D01*
X1208501D01*
X1203502Y865300D02*
Y872798D01*
X1199754D01*
X1198504Y871548D01*
Y869049D01*
X1199754Y867799D01*
X1203502D01*
X1196005Y872798D02*
X1193506D01*
X1194755D01*
Y865300D01*
X1196005D01*
X1193506D01*
X1186008Y872798D02*
X1188507D01*
X1189757Y871548D01*
Y866550D01*
X1188507Y865300D01*
X1186008D01*
X1184758Y866550D01*
Y871548D01*
X1186008Y872798D01*
X1182259Y865300D02*
X1179760D01*
X1181010D01*
Y872798D01*
X1182259Y871548D01*
X1171013Y872798D02*
X1176011D01*
Y869049D01*
X1173512Y870298D01*
X1172262D01*
X1171013Y869049D01*
Y866550D01*
X1172262Y865300D01*
X1174762D01*
X1176011Y866550D01*
X1206002Y846148D02*
X1207251Y847398D01*
X1209750D01*
X1211000Y846148D01*
Y841150D01*
X1209750Y839900D01*
X1207251D01*
X1206002Y841150D01*
Y843649D01*
X1208501D01*
X1203502Y839900D02*
Y847398D01*
X1199754D01*
X1198504Y846148D01*
Y843649D01*
X1199754Y842399D01*
X1203502D01*
X1196005Y847398D02*
X1193506D01*
X1194755D01*
Y839900D01*
X1196005D01*
X1193506D01*
X1186008Y847398D02*
X1188507D01*
X1189757Y846148D01*
Y841150D01*
X1188507Y839900D01*
X1186008D01*
X1184758Y841150D01*
Y846148D01*
X1186008Y847398D01*
X1177261Y839900D02*
X1182259D01*
X1177261Y844898D01*
Y846148D01*
X1178510Y847398D01*
X1181010D01*
X1182259Y846148D01*
X1174762D02*
X1173512Y847398D01*
X1171013D01*
X1169763Y846148D01*
Y844898D01*
X1171013Y843649D01*
X1172262D01*
X1171013D01*
X1169763Y842399D01*
Y841150D01*
X1171013Y839900D01*
X1173512D01*
X1174762Y841150D01*
X1206002Y820748D02*
X1207251Y821998D01*
X1209750D01*
X1211000Y820748D01*
Y815750D01*
X1209750Y814500D01*
X1207251D01*
X1206002Y815750D01*
Y818249D01*
X1208501D01*
X1203502Y814500D02*
Y821998D01*
X1199754D01*
X1198504Y820748D01*
Y818249D01*
X1199754Y816999D01*
X1203502D01*
X1196005Y821998D02*
X1193506D01*
X1194755D01*
Y814500D01*
X1196005D01*
X1193506D01*
X1186008Y821998D02*
X1188507D01*
X1189757Y820748D01*
Y815750D01*
X1188507Y814500D01*
X1186008D01*
X1184758Y815750D01*
Y820748D01*
X1186008Y821998D01*
X1177261Y814500D02*
X1182259D01*
X1177261Y819498D01*
Y820748D01*
X1178510Y821998D01*
X1181010D01*
X1182259Y820748D01*
X1169763Y814500D02*
X1174762D01*
X1169763Y819498D01*
Y820748D01*
X1171013Y821998D01*
X1173512D01*
X1174762Y820748D01*
X1206002Y795348D02*
X1207251Y796598D01*
X1209750D01*
X1211000Y795348D01*
Y790350D01*
X1209750Y789100D01*
X1207251D01*
X1206002Y790350D01*
Y792849D01*
X1208501D01*
X1203502Y789100D02*
Y796598D01*
X1199754D01*
X1198504Y795348D01*
Y792849D01*
X1199754Y791599D01*
X1203502D01*
X1196005Y796598D02*
X1193506D01*
X1194755D01*
Y789100D01*
X1196005D01*
X1193506D01*
X1186008Y796598D02*
X1188507D01*
X1189757Y795348D01*
Y790350D01*
X1188507Y789100D01*
X1186008D01*
X1184758Y790350D01*
Y795348D01*
X1186008Y796598D01*
X1177261Y789100D02*
X1182259D01*
X1177261Y794098D01*
Y795348D01*
X1178510Y796598D01*
X1181010D01*
X1182259Y795348D01*
X1174762Y789100D02*
X1172262D01*
X1173512D01*
Y796598D01*
X1174762Y795348D01*
X1206002Y769948D02*
X1207251Y771198D01*
X1209750D01*
X1211000Y769948D01*
Y764950D01*
X1209750Y763700D01*
X1207251D01*
X1206002Y764950D01*
Y767449D01*
X1208501D01*
X1203502Y763700D02*
Y771198D01*
X1199754D01*
X1198504Y769948D01*
Y767449D01*
X1199754Y766199D01*
X1203502D01*
X1196005Y771198D02*
X1193506D01*
X1194755D01*
Y763700D01*
X1196005D01*
X1193506D01*
X1186008Y771198D02*
X1188507D01*
X1189757Y769948D01*
Y764950D01*
X1188507Y763700D01*
X1186008D01*
X1184758Y764950D01*
Y769948D01*
X1186008Y771198D01*
X1177261Y763700D02*
X1182259D01*
X1177261Y768698D01*
Y769948D01*
X1178510Y771198D01*
X1181010D01*
X1182259Y769948D01*
X1174762D02*
X1173512Y771198D01*
X1171013D01*
X1169763Y769948D01*
Y764950D01*
X1171013Y763700D01*
X1173512D01*
X1174762Y764950D01*
Y769948D01*
X1206002Y744548D02*
X1207251Y745798D01*
X1209750D01*
X1211000Y744548D01*
Y739550D01*
X1209750Y738300D01*
X1207251D01*
X1206002Y739550D01*
Y742049D01*
X1208501D01*
X1203502Y738300D02*
Y745798D01*
X1199754D01*
X1198504Y744548D01*
Y742049D01*
X1199754Y740799D01*
X1203502D01*
X1196005Y745798D02*
X1193506D01*
X1194755D01*
Y738300D01*
X1196005D01*
X1193506D01*
X1186008Y745798D02*
X1188507D01*
X1189757Y744548D01*
Y739550D01*
X1188507Y738300D01*
X1186008D01*
X1184758Y739550D01*
Y744548D01*
X1186008Y745798D01*
X1182259Y738300D02*
X1179760D01*
X1181010D01*
Y745798D01*
X1182259Y744548D01*
X1176011Y739550D02*
X1174762Y738300D01*
X1172262D01*
X1171013Y739550D01*
Y744548D01*
X1172262Y745798D01*
X1174762D01*
X1176011Y744548D01*
Y743298D01*
X1174762Y742049D01*
X1171013D01*
X1206002Y719148D02*
X1207251Y720398D01*
X1209750D01*
X1211000Y719148D01*
Y714150D01*
X1209750Y712900D01*
X1207251D01*
X1206002Y714150D01*
Y716649D01*
X1208501D01*
X1203502Y712900D02*
Y720398D01*
X1199754D01*
X1198504Y719148D01*
Y716649D01*
X1199754Y715399D01*
X1203502D01*
X1196005Y720398D02*
X1193506D01*
X1194755D01*
Y712900D01*
X1196005D01*
X1193506D01*
X1186008Y720398D02*
X1188507D01*
X1189757Y719148D01*
Y714150D01*
X1188507Y712900D01*
X1186008D01*
X1184758Y714150D01*
Y719148D01*
X1186008Y720398D01*
X1182259Y712900D02*
X1179760D01*
X1181010D01*
Y720398D01*
X1182259Y719148D01*
X1176011D02*
X1174762Y720398D01*
X1172262D01*
X1171013Y719148D01*
Y717898D01*
X1172262Y716649D01*
X1171013Y715399D01*
Y714150D01*
X1172262Y712900D01*
X1174762D01*
X1176011Y714150D01*
Y715399D01*
X1174762Y716649D01*
X1176011Y717898D01*
Y719148D01*
X1174762Y716649D02*
X1172262D01*
X1206002Y693748D02*
X1207251Y694998D01*
X1209750D01*
X1211000Y693748D01*
Y688750D01*
X1209750Y687500D01*
X1207251D01*
X1206002Y688750D01*
Y691249D01*
X1208501D01*
X1203502Y687500D02*
Y694998D01*
X1199754D01*
X1198504Y693748D01*
Y691249D01*
X1199754Y689999D01*
X1203502D01*
X1196005Y694998D02*
X1193506D01*
X1194755D01*
Y687500D01*
X1196005D01*
X1193506D01*
X1186008Y694998D02*
X1188507D01*
X1189757Y693748D01*
Y688750D01*
X1188507Y687500D01*
X1186008D01*
X1184758Y688750D01*
Y693748D01*
X1186008Y694998D01*
X1182259Y688750D02*
X1181010Y687500D01*
X1178510D01*
X1177261Y688750D01*
Y693748D01*
X1178510Y694998D01*
X1181010D01*
X1182259Y693748D01*
Y692498D01*
X1181010Y691249D01*
X1177261D01*
X1206002Y668348D02*
X1207251Y669598D01*
X1209750D01*
X1211000Y668348D01*
Y663350D01*
X1209750Y662100D01*
X1207251D01*
X1206002Y663350D01*
Y665849D01*
X1208501D01*
X1203502Y662100D02*
Y669598D01*
X1198504Y662100D01*
Y669598D01*
X1196005D02*
Y662100D01*
X1192256D01*
X1191006Y663350D01*
Y668348D01*
X1192256Y669598D01*
X1196005D01*
X1206002Y642948D02*
X1207251Y644198D01*
X1209750D01*
X1211000Y642948D01*
Y637950D01*
X1209750Y636700D01*
X1207251D01*
X1206002Y637950D01*
Y640449D01*
X1208501D01*
X1203502Y636700D02*
Y644198D01*
X1199754D01*
X1198504Y642948D01*
Y640449D01*
X1199754Y639199D01*
X1203502D01*
X1196005Y644198D02*
X1193506D01*
X1194755D01*
Y636700D01*
X1196005D01*
X1193506D01*
X1186008Y644198D02*
X1188507D01*
X1189757Y642948D01*
Y637950D01*
X1188507Y636700D01*
X1186008D01*
X1184758Y637950D01*
Y642948D01*
X1186008Y644198D01*
X1182259Y636700D02*
X1179760D01*
X1181010D01*
Y644198D01*
X1182259Y642948D01*
X1176011D02*
X1174762Y644198D01*
X1172262D01*
X1171013Y642948D01*
Y641698D01*
X1172262Y640449D01*
X1173512D01*
X1172262D01*
X1171013Y639199D01*
Y637950D01*
X1172262Y636700D01*
X1174762D01*
X1176011Y637950D01*
X1206002Y617548D02*
X1207251Y618798D01*
X1209750D01*
X1211000Y617548D01*
Y612550D01*
X1209750Y611300D01*
X1207251D01*
X1206002Y612550D01*
Y615049D01*
X1208501D01*
X1203502Y611300D02*
Y618798D01*
X1199754D01*
X1198504Y617548D01*
Y615049D01*
X1199754Y613799D01*
X1203502D01*
X1196005Y618798D02*
X1193506D01*
X1194755D01*
Y611300D01*
X1196005D01*
X1193506D01*
X1186008Y618798D02*
X1188507D01*
X1189757Y617548D01*
Y612550D01*
X1188507Y611300D01*
X1186008D01*
X1184758Y612550D01*
Y617548D01*
X1186008Y618798D01*
X1182259Y611300D02*
X1179760D01*
X1181010D01*
Y618798D01*
X1182259Y617548D01*
X1171013Y611300D02*
X1176011D01*
X1171013Y616298D01*
Y617548D01*
X1172262Y618798D01*
X1174762D01*
X1176011Y617548D01*
X1206002Y592148D02*
X1207251Y593398D01*
X1209750D01*
X1211000Y592148D01*
Y587150D01*
X1209750Y585900D01*
X1207251D01*
X1206002Y587150D01*
Y589649D01*
X1208501D01*
X1203502Y585900D02*
Y593398D01*
X1198504Y585900D01*
Y593398D01*
X1196005D02*
Y585900D01*
X1192256D01*
X1191006Y587150D01*
Y592148D01*
X1192256Y593398D01*
X1196005D01*
X858994Y947748D02*
X857744Y948998D01*
X855245D01*
X853995Y947748D01*
Y946498D01*
X855245Y945249D01*
X856494D01*
X855245D01*
X853995Y943999D01*
Y942750D01*
X855245Y941500D01*
X857744D01*
X858994Y942750D01*
X851496Y948998D02*
Y943999D01*
X848997Y941500D01*
X846498Y943999D01*
Y948998D01*
X843998Y947748D02*
X842749Y948998D01*
X840250D01*
X839000Y947748D01*
Y946498D01*
X840250Y945249D01*
X841499D01*
X840250D01*
X839000Y943999D01*
Y942750D01*
X840250Y941500D01*
X842749D01*
X843998Y942750D01*
X1033747Y1100250D02*
X1038746D01*
X1033747Y1105248D01*
Y1106498D01*
X1034997Y1107748D01*
X1037496D01*
X1038746Y1106498D01*
X1031248Y1100250D02*
X1026250Y1105248D01*
X1018752Y1100250D02*
X1023750D01*
X1018752Y1105248D01*
Y1106498D01*
X1020002Y1107748D01*
X1022501D01*
X1023750Y1106498D01*
X1016253D02*
X1015003Y1107748D01*
X1012504D01*
X1011254Y1106498D01*
Y1105248D01*
X1012504Y1103999D01*
X1013754D01*
X1012504D01*
X1011254Y1102749D01*
Y1101500D01*
X1012504Y1100250D01*
X1015003D01*
X1016253Y1101500D01*
X1096227Y1121247D02*
X1101226D01*
Y1113749D01*
X1096227D01*
X1101226Y1117498D02*
X1098726D01*
X1088730Y1119997D02*
X1089979Y1121247D01*
X1092478D01*
X1093728Y1119997D01*
Y1118748D01*
X1092478Y1117498D01*
X1089979D01*
X1088730Y1116248D01*
Y1114999D01*
X1089979Y1113749D01*
X1092478D01*
X1093728Y1114999D01*
X1086230Y1113749D02*
Y1121247D01*
X1082482D01*
X1081232Y1119997D01*
Y1117498D01*
X1082482Y1116248D01*
X1086230D01*
X1078733Y1119997D02*
X1077483Y1121247D01*
X1074984D01*
X1073734Y1119997D01*
Y1118748D01*
X1074984Y1117498D01*
X1076234D01*
X1074984D01*
X1073734Y1116248D01*
Y1114999D01*
X1074984Y1113749D01*
X1077483D01*
X1078733Y1114999D01*
X1066237Y1113749D02*
X1071235D01*
X1066237Y1118748D01*
Y1119997D01*
X1067486Y1121247D01*
X1069986D01*
X1071235Y1119997D01*
X1063738Y1117498D02*
X1058739D01*
X1051242Y1119997D02*
X1052491Y1121247D01*
X1054990D01*
X1056240Y1119997D01*
Y1114999D01*
X1054990Y1113749D01*
X1052491D01*
X1051242Y1114999D01*
X1043744Y1121247D02*
X1046243Y1119997D01*
X1048742Y1117498D01*
Y1114999D01*
X1047493Y1113749D01*
X1044994D01*
X1043744Y1114999D01*
Y1116248D01*
X1044994Y1117498D01*
X1048742D01*
X1041245D02*
X1036246D01*
X1033747Y1121247D02*
Y1113749D01*
X1029998D01*
X1028749Y1114999D01*
Y1119997D01*
X1029998Y1121247D01*
X1033747D01*
X1026250Y1113749D02*
X1023750D01*
X1025000D01*
Y1118748D01*
X1026250D01*
X1020002Y1113749D02*
X1016253D01*
X1015003Y1114999D01*
X1016253Y1116248D01*
X1018752D01*
X1020002Y1117498D01*
X1018752Y1118748D01*
X1015003D01*
X1012504Y1111250D02*
Y1118748D01*
X1008755D01*
X1007506Y1117498D01*
Y1114999D01*
X1008755Y1113749D01*
X1012504D01*
X1005006D02*
X1002507D01*
X1003757D01*
Y1121247D01*
X1005006D01*
X997509Y1118748D02*
X995010D01*
X993760Y1117498D01*
Y1113749D01*
X997509D01*
X998758Y1114999D01*
X997509Y1116248D01*
X993760D01*
X991261Y1118748D02*
Y1114999D01*
X990011Y1113749D01*
X986262D01*
Y1112500D01*
X987512Y1111250D01*
X988762D01*
X986262Y1113749D02*
Y1118748D01*
X983763Y1121247D02*
Y1113749D01*
X980014D01*
X978765Y1114999D01*
Y1116248D01*
X980014Y1117498D01*
X983763D01*
X980014D01*
X978765Y1118748D01*
Y1119997D01*
X980014Y1121247D01*
X983763D01*
X975016Y1113749D02*
X972517D01*
X971267Y1114999D01*
Y1117498D01*
X972517Y1118748D01*
X975016D01*
X976266Y1117498D01*
Y1114999D01*
X975016Y1113749D01*
X967518Y1118748D02*
X965019D01*
X963770Y1117498D01*
Y1113749D01*
X967518D01*
X968768Y1114999D01*
X967518Y1116248D01*
X963770D01*
X961270Y1118748D02*
Y1113749D01*
Y1116248D01*
X960021Y1117498D01*
X958771Y1118748D01*
X957522D01*
X948774Y1121247D02*
Y1113749D01*
X952523D01*
X953773Y1114999D01*
Y1117498D01*
X952523Y1118748D01*
X948774D01*
M02*
