M48
;Layer_Color=9474304
;FILE_FORMAT=4:4
METRIC,LZ
;TYPE=PLATED
T1F00S00C0.3000
T2F00S00C0.4000
T4F00S00C0.9000
T5F00S00C2.5000
;TYPE=NON_PLATED
T6F00S00C0.6000
%
T01
X00904Y00463
X00981Y0057
X00986Y00585
X01102Y00642
X0111Y00644812
X01118Y00645
X0112527
X0110073Y01024925
X01099Y01037
X00895Y01011
X00911Y0091
X00953
T02
X0122Y0048
X012Y0052
Y006
Y0068
X0118Y0072
X0114
X0104Y0076
Y0068
X01
X0102Y0064
X0106
X011Y0056
X0108Y0052
X0112
X0116
X0118Y0056
X0116Y006
X0118Y0048
X0116Y0044
X0108
X0104
X01
X0096
X0098Y0048
X0094
X0092Y0052
X0088
X0084
X0086Y0056
X009
X0094
X0092Y006
X0084
X0086Y0064
X0084Y0068
X009Y0072
X0098
X0102Y0056
X01Y0052
X011Y0048
X0086
X0088Y0044
X0098Y0088
X01Y0092
X0104
X0106Y0096
X0102
X0098
Y0104
X0102
X0106
X0104Y01
X0114Y0104
X0118
X0086
X0084Y01
X012
X0122Y0104
Y0096
X012Y0092
T04
X0122725Y0056425
Y0058965
Y0061505
Y0064045
Y0066585
Y0069125
Y0071665
Y0074205
Y0076745
Y0079285
X0082275
Y0076745
Y0074205
Y0071665
Y0069125
Y0066585
Y0064045
Y0061505
Y0058965
Y0056425
Y0081825
Y0084365
Y0086905
Y0089445
Y0091985
Y0094525
X0122725
Y0091985
Y0089445
Y0086905
Y0084365
Y0081825
T05
X01213Y00422
X00837
Y01098
X01213
T06
X009961Y004528
X010539
M30
