G04*
G04 #@! TF.GenerationSoftware,Altium Limited,Altium Designer,23.1.1 (15)*
G04*
G04 Layer_Color=65535*
%FSLAX44Y44*%
%MOMM*%
G71*
G04*
G04 #@! TF.SameCoordinates,7295AF94-9057-4BB6-BE4D-2D92AE26B948*
G04*
G04*
G04 #@! TF.FilePolarity,Positive*
G04*
G01*
G75*
%ADD10C,0.2500*%
%ADD11C,0.2000*%
%ADD12C,0.1500*%
%ADD13C,0.1270*%
%ADD14C,0.1250*%
D10*
X1045250Y821000D02*
G03*
X1045250Y821000I-1250J0D01*
G01*
X1042750Y512523D02*
G03*
X1042750Y512523I-1250J0D01*
G01*
X1123750Y649750D02*
G03*
X1123750Y649750I-1250J0D01*
G01*
X894750Y445500D02*
G03*
X894750Y445500I-1250J0D01*
G01*
X1094750D02*
G03*
X1094750Y445500I-1250J0D01*
G01*
D11*
X994000Y476000D02*
G03*
X994000Y476000I-1000J0D01*
G01*
X1009500Y800000D02*
X1017000D01*
X1009500D02*
Y813000D01*
X1033000Y800000D02*
X1040500D01*
Y813000D01*
X1033500Y528064D02*
Y556064D01*
X1068500Y528064D02*
Y556064D01*
X810050Y551550D02*
Y957950D01*
X835450D01*
Y938900D02*
Y957950D01*
Y551550D02*
Y938900D01*
X810050Y551550D02*
X835450D01*
X1214550D02*
Y957950D01*
X1239950D01*
Y938900D02*
Y957950D01*
Y551550D02*
Y938900D01*
X1214550Y551550D02*
X1239950D01*
X1149500Y657750D02*
Y677000D01*
Y697500D02*
Y712250D01*
X900500D02*
X1149500D01*
X900500Y657750D02*
Y677000D01*
Y697500D02*
Y712250D01*
Y657750D02*
X922250D01*
X1127750D02*
X1149500D01*
X904000Y431000D02*
Y438500D01*
X913250Y418750D02*
X936750D01*
X946000Y431000D02*
Y438500D01*
X913250Y450750D02*
X936750D01*
X1104000Y431000D02*
Y438500D01*
X1113250Y418750D02*
X1136750D01*
X1146000Y431000D02*
Y438500D01*
X1113250Y450750D02*
X1136750D01*
X904500Y1041750D02*
X907500D01*
X904500Y1050250D02*
X907500D01*
D12*
X1046000Y575000D02*
Y579000D01*
X1054000Y502000D02*
Y506000D01*
X916000Y921000D02*
X920000D01*
X900000Y995000D02*
Y999000D01*
D13*
X980300Y390000D02*
X1069700D01*
X980300D02*
Y404300D01*
Y427700D02*
Y444500D01*
X1069700Y390000D02*
Y404300D01*
Y427700D02*
Y444500D01*
D14*
X907506Y456000D02*
Y463498D01*
X911254D01*
X912504Y462248D01*
Y459749D01*
X911254Y458499D01*
X907506D01*
X910005D02*
X912504Y456000D01*
X920002Y463498D02*
X915003D01*
Y456000D01*
X920002D01*
X915003Y459749D02*
X917503D01*
X927499Y462248D02*
X926250Y463498D01*
X923751D01*
X922501Y462248D01*
Y460998D01*
X923751Y459749D01*
X926250D01*
X927499Y458499D01*
Y457250D01*
X926250Y456000D01*
X923751D01*
X922501Y457250D01*
X934997Y463498D02*
X929998D01*
Y456000D01*
X934997D01*
X929998Y459749D02*
X932498D01*
X937496Y463498D02*
X942494D01*
X939995D01*
Y456000D01*
X1111254Y463498D02*
Y456000D01*
X1115003D01*
X1116253Y457250D01*
Y458499D01*
X1115003Y459749D01*
X1111254D01*
X1115003D01*
X1116253Y460998D01*
Y462248D01*
X1115003Y463498D01*
X1111254D01*
X1122501D02*
X1120002D01*
X1118752Y462248D01*
Y457250D01*
X1120002Y456000D01*
X1122501D01*
X1123750Y457250D01*
Y462248D01*
X1122501Y463498D01*
X1129998D02*
X1127499D01*
X1126250Y462248D01*
Y457250D01*
X1127499Y456000D01*
X1129998D01*
X1131248Y457250D01*
Y462248D01*
X1129998Y463498D01*
X1133747D02*
X1138746D01*
X1136246D01*
Y456000D01*
X1025835Y839501D02*
Y844499D01*
X1028334D01*
X1029167Y843666D01*
Y842000D01*
X1028334Y841167D01*
X1025835D01*
X1027501D02*
X1029167Y839501D01*
X1034165Y844499D02*
X1030833D01*
Y842000D01*
X1032499Y842833D01*
X1033332D01*
X1034165Y842000D01*
Y840334D01*
X1033332Y839501D01*
X1031666D01*
X1030833Y840334D01*
X1044334Y811000D02*
X1047666D01*
X1048499Y811833D01*
Y813499D01*
X1047666Y814332D01*
X1044334D01*
X1043501Y813499D01*
Y811833D01*
X1045167Y812666D02*
X1043501Y811000D01*
Y811833D02*
X1044334Y811000D01*
X1043501Y809334D02*
Y807668D01*
Y808501D01*
X1048499D01*
X1047666Y809334D01*
X1045167Y586666D02*
X1044334Y587499D01*
X1042668D01*
X1041835Y586666D01*
Y583334D01*
X1042668Y582501D01*
X1044334D01*
X1045167Y583334D01*
X1046833Y586666D02*
X1047666Y587499D01*
X1049332D01*
X1050165Y586666D01*
Y585833D01*
X1049332Y585000D01*
X1050165Y584167D01*
Y583334D01*
X1049332Y582501D01*
X1047666D01*
X1046833Y583334D01*
Y584167D01*
X1047666Y585000D01*
X1046833Y585833D01*
Y586666D01*
X1047666Y585000D02*
X1049332D01*
X1068167Y505666D02*
X1067334Y506499D01*
X1065668D01*
X1064835Y505666D01*
Y502334D01*
X1065668Y501501D01*
X1067334D01*
X1068167Y502334D01*
X1069833Y506499D02*
X1073165D01*
Y505666D01*
X1069833Y502334D01*
Y501501D01*
X966167Y635666D02*
X965334Y636499D01*
X963668D01*
X962835Y635666D01*
Y632334D01*
X963668Y631501D01*
X965334D01*
X966167Y632334D01*
X971165Y636499D02*
X969499Y635666D01*
X967833Y634000D01*
Y632334D01*
X968666Y631501D01*
X970332D01*
X971165Y632334D01*
Y633167D01*
X970332Y634000D01*
X967833D01*
X906000Y1062666D02*
X905167Y1063499D01*
X903501D01*
X902668Y1062666D01*
Y1059334D01*
X903501Y1058501D01*
X905167D01*
X906000Y1059334D01*
X907666Y1058501D02*
X909332D01*
X908499D01*
Y1063499D01*
X907666Y1062666D01*
X1042835Y488501D02*
Y493499D01*
X1045334D01*
X1046167Y492666D01*
Y491000D01*
X1045334Y490167D01*
X1042835D01*
X1044501D02*
X1046167Y488501D01*
X1050332D02*
Y493499D01*
X1047833Y491000D01*
X1051165D01*
X1003835Y488501D02*
Y493499D01*
X1006334D01*
X1007167Y492666D01*
Y491000D01*
X1006334Y490167D01*
X1003835D01*
X1005501D02*
X1007167Y488501D01*
X1008833Y492666D02*
X1009666Y493499D01*
X1011332D01*
X1012165Y492666D01*
Y491833D01*
X1011332Y491000D01*
X1010499D01*
X1011332D01*
X1012165Y490167D01*
Y489334D01*
X1011332Y488501D01*
X1009666D01*
X1008833Y489334D01*
X880835Y994501D02*
Y999499D01*
X883334D01*
X884167Y998666D01*
Y997000D01*
X883334Y996167D01*
X880835D01*
X882501D02*
X884167Y994501D01*
X889165D02*
X885833D01*
X889165Y997833D01*
Y998666D01*
X888332Y999499D01*
X886666D01*
X885833Y998666D01*
X906501Y924332D02*
X911499D01*
Y921833D01*
X910666Y921000D01*
X909000D01*
X908167Y921833D01*
Y924332D01*
Y922666D02*
X906501Y921000D01*
Y919334D02*
Y917668D01*
Y918501D01*
X911499D01*
X910666Y919334D01*
X1144666Y881833D02*
X1145499Y882666D01*
Y884332D01*
X1144666Y885165D01*
X1141334D01*
X1140501Y884332D01*
Y882666D01*
X1141334Y881833D01*
X1145499Y876835D02*
Y880167D01*
X1143000D01*
X1143833Y878501D01*
Y877668D01*
X1143000Y876835D01*
X1141334D01*
X1140501Y877668D01*
Y879334D01*
X1141334Y880167D01*
X894167Y1018666D02*
X893334Y1019499D01*
X891668D01*
X890835Y1018666D01*
Y1015334D01*
X891668Y1014501D01*
X893334D01*
X894167Y1015334D01*
X898332Y1014501D02*
Y1019499D01*
X895833Y1017000D01*
X899165D01*
X894167Y1009666D02*
X893334Y1010499D01*
X891668D01*
X890835Y1009666D01*
Y1006334D01*
X891668Y1005501D01*
X893334D01*
X894167Y1006334D01*
X895833Y1009666D02*
X896666Y1010499D01*
X898332D01*
X899165Y1009666D01*
Y1008833D01*
X898332Y1008000D01*
X897499D01*
X898332D01*
X899165Y1007167D01*
Y1006334D01*
X898332Y1005501D01*
X896666D01*
X895833Y1006334D01*
X894167Y1031666D02*
X893334Y1032499D01*
X891668D01*
X890835Y1031666D01*
Y1028334D01*
X891668Y1027501D01*
X893334D01*
X894167Y1028334D01*
X899165Y1027501D02*
X895833D01*
X899165Y1030833D01*
Y1031666D01*
X898332Y1032499D01*
X896666D01*
X895833Y1031666D01*
M02*
