G04*
G04 #@! TF.GenerationSoftware,Altium Limited,Altium Designer,23.1.1 (15)*
G04*
G04 Layer_Color=8421504*
%FSLAX44Y44*%
%MOMM*%
G71*
G04*
G04 #@! TF.SameCoordinates,7295AF94-9057-4BB6-BE4D-2D92AE26B948*
G04*
G04*
G04 #@! TF.FilePolarity,Positive*
G04*
G01*
G75*
G04:AMPARAMS|DCode=15|XSize=0.55mm|YSize=0.5mm|CornerRadius=0.0625mm|HoleSize=0mm|Usage=FLASHONLY|Rotation=90.000|XOffset=0mm|YOffset=0mm|HoleType=Round|Shape=RoundedRectangle|*
%AMROUNDEDRECTD15*
21,1,0.5500,0.3750,0,0,90.0*
21,1,0.4250,0.5000,0,0,90.0*
1,1,0.1250,0.1875,0.2125*
1,1,0.1250,0.1875,-0.2125*
1,1,0.1250,-0.1875,-0.2125*
1,1,0.1250,-0.1875,0.2125*
%
%ADD15ROUNDEDRECTD15*%
%ADD16R,0.6000X0.5500*%
%ADD17R,0.8000X0.8000*%
%ADD18R,0.5600X0.5200*%
%ADD19R,0.6000X1.1400*%
%ADD20R,0.3000X1.1400*%
G04:AMPARAMS|DCode=21|XSize=1.7071mm|YSize=0.6158mm|CornerRadius=0.3079mm|HoleSize=0mm|Usage=FLASHONLY|Rotation=90.000|XOffset=0mm|YOffset=0mm|HoleType=Round|Shape=RoundedRectangle|*
%AMROUNDEDRECTD21*
21,1,1.7071,0.0000,0,0,90.0*
21,1,1.0913,0.6158,0,0,90.0*
1,1,0.6158,0.0000,0.5457*
1,1,0.6158,0.0000,-0.5457*
1,1,0.6158,0.0000,-0.5457*
1,1,0.6158,0.0000,0.5457*
%
%ADD21ROUNDEDRECTD21*%
%ADD22R,0.6158X1.7071*%
%ADD23R,0.3000X1.0000*%
%ADD24R,2.0000X1.3000*%
%ADD25R,0.5800X0.5400*%
%ADD26R,1.0500X0.6500*%
%ADD27R,0.6500X1.0500*%
G04:AMPARAMS|DCode=28|XSize=0.55mm|YSize=0.5mm|CornerRadius=0.0625mm|HoleSize=0mm|Usage=FLASHONLY|Rotation=0.000|XOffset=0mm|YOffset=0mm|HoleType=Round|Shape=RoundedRectangle|*
%AMROUNDEDRECTD28*
21,1,0.5500,0.3750,0,0,0.0*
21,1,0.4250,0.5000,0,0,0.0*
1,1,0.1250,0.2125,-0.1875*
1,1,0.1250,-0.2125,-0.1875*
1,1,0.1250,-0.2125,0.1875*
1,1,0.1250,0.2125,0.1875*
%
%ADD28ROUNDEDRECTD28*%
%ADD29R,0.5400X0.5800*%
D15*
X1041500Y577000D02*
D03*
X1050500D02*
D03*
X1058500Y504000D02*
D03*
X1049500D02*
D03*
X895500Y997000D02*
D03*
X904500D02*
D03*
D16*
X1034250Y833000D02*
D03*
X1025750D02*
D03*
X1003750Y482000D02*
D03*
X1012250D02*
D03*
X1051250D02*
D03*
X1042750D02*
D03*
D17*
X1025000Y797000D02*
D03*
X1015500Y821000D02*
D03*
X1034500D02*
D03*
D18*
X970900Y642000D02*
D03*
X963100D02*
D03*
X912900Y1017000D02*
D03*
X905100D02*
D03*
D19*
X1057000Y463500D02*
D03*
X1049000D02*
D03*
X1001000D02*
D03*
X993000D02*
D03*
D20*
X1042500D02*
D03*
X1037500D02*
D03*
X1032500D02*
D03*
X1027500D02*
D03*
X1007500D02*
D03*
X1012500D02*
D03*
X1017500D02*
D03*
X1022500D02*
D03*
D21*
X1041500Y554069D02*
D03*
X1060500D02*
D03*
Y530058D02*
D03*
X1051000D02*
D03*
D22*
X1041500D02*
D03*
D23*
X1052500Y660250D02*
D03*
X1062500D02*
D03*
X1072500D02*
D03*
X1077500D02*
D03*
X1082500D02*
D03*
X1107500D02*
D03*
X1112500D02*
D03*
X1117500D02*
D03*
X1122500D02*
D03*
X927500D02*
D03*
X932500D02*
D03*
X937500D02*
D03*
X942500D02*
D03*
X947500D02*
D03*
X952500D02*
D03*
X957500D02*
D03*
X962500D02*
D03*
X967500D02*
D03*
X972500D02*
D03*
X977500D02*
D03*
X982500D02*
D03*
X987500D02*
D03*
X992500D02*
D03*
X997500D02*
D03*
X1002500D02*
D03*
X1007500D02*
D03*
X1012500D02*
D03*
X1017500D02*
D03*
X1022500D02*
D03*
X1027500D02*
D03*
X1032500D02*
D03*
X1037500D02*
D03*
X1042500D02*
D03*
X1047500D02*
D03*
X1092500D02*
D03*
X1097500D02*
D03*
X1102500D02*
D03*
X1057500D02*
D03*
X1067500D02*
D03*
X1087500D02*
D03*
D24*
X904500Y687250D02*
D03*
X1145500D02*
D03*
D25*
X912900Y1030000D02*
D03*
X905100D02*
D03*
X905100Y1008000D02*
D03*
X912900D02*
D03*
D26*
X945750Y424000D02*
D03*
X904250D02*
D03*
X945750Y445500D02*
D03*
X904250D02*
D03*
X1145750Y424000D02*
D03*
X1104250D02*
D03*
X1145750Y445500D02*
D03*
X1104250D02*
D03*
D27*
X914500Y1046000D02*
D03*
X897500D02*
D03*
D28*
X918000Y916500D02*
D03*
Y925500D02*
D03*
D29*
X1134000Y877100D02*
D03*
Y884900D02*
D03*
M02*
